<?xml version="1.0" encoding="UTF-8"?>
<!-- Generator: visioncortex VTracer 0.6.2 -->
<svg version="1.1" xmlns="http://www.w3.org/2000/svg" width="1280" height="563">
<path d="M0 0 C6.93 0 13.86 0 21 0 C25.45654373 4.45654373 25.45654373 4.45654373 25.52564943 9.31819206 C25.5153623 10.02042883 25.50507518 10.72266559 25.49447632 11.44618225 C25.49930515 12.19885689 25.50413398 12.95153152 25.50910914 13.72701448 C25.52038678 16.25073509 25.50305673 18.77344393 25.48583984 21.29711914 C25.48798554 23.10562922 25.49186297 24.91413795 25.49734497 26.72264099 C25.5070467 31.63580758 25.49172517 36.54861134 25.47143888 41.46173406 C25.45388696 46.59862568 25.45739259 51.73550577 25.4581604 56.87242126 C25.45628679 65.49842409 25.43891392 74.12428627 25.41162109 82.75024414 C25.38015972 92.73071808 25.36962521 102.711038 25.3710922 112.69155794 C25.37231189 122.28427146 25.36210965 131.87693469 25.34550858 141.4696331 C25.33843801 145.55609975 25.33478138 149.64254861 25.33372116 153.72902107 C25.33171556 158.53806657 25.31953274 163.34698221 25.29938889 168.15598488 C25.29353577 169.92369543 25.29108878 171.69142092 25.29224396 173.45914078 C25.29322201 175.86650009 25.28194767 178.27349301 25.26742554 180.68080139 C25.27052274 181.38526887 25.27361995 182.08973636 25.276811 182.81555134 C25.24052645 186.44154179 25.07286249 187.89070627 23 191 C21.06054688 191.38818359 21.06054688 191.38818359 18.71875 191.3984375 C17.87699219 191.40230469 17.03523437 191.40617188 16.16796875 191.41015625 C14.84732422 191.39275391 14.84732422 191.39275391 13.5 191.375 C12.61957031 191.38660156 11.73914063 191.39820313 10.83203125 191.41015625 C9.99027344 191.40628906 9.14851563 191.40242187 8.28125 191.3984375 C7.50845703 191.39505371 6.73566406 191.39166992 5.93945312 191.38818359 C4 191 4 191 2 188 C1.8046875 184.64453125 1.8046875 184.64453125 1.875 180.8125 C1.89304687 179.54019531 1.91109375 178.26789063 1.9296875 176.95703125 C1.95289063 175.98121094 1.97609375 175.00539063 2 174 C0.35 174 -1.3 174 -3 174 C-3.226875 174.556875 -3.45375 175.11375 -3.6875 175.6875 C-6.46227141 180.57638297 -9.82232043 183.10572699 -15 185 C-16.010625 185.70125 -17.02125 186.4025 -18.0625 187.125 C-21 189 -21 189 -25 189 C-25.33 189.66 -25.66 190.32 -26 191 C-29.63 191 -33.26 191 -37 191 C-37 191.66 -37 192.32 -37 193 C-40.70446553 194.23482184 -44.1443008 194.14558202 -48 194.125 C-48.72445312 194.12886719 -49.44890625 194.13273438 -50.1953125 194.13671875 C-53.39282879 194.13081927 -55.94582607 194.01805798 -59 193 C-59 192.34 -59 191.68 -59 191 C-59.556875 191.04640625 -60.11375 191.0928125 -60.6875 191.140625 C-66.10106684 191.39667208 -69.49995213 190.61902709 -74.203125 187.95703125 C-76.41202824 186.78055018 -78.52618474 186.30922691 -81 186 C-81 185.01 -81 184.02 -81 183 C-82.09054687 183.11988281 -82.09054687 183.11988281 -83.203125 183.2421875 C-86.866402 182.92497636 -88.10291544 181.62107638 -90.75 179.125 C-91.91789062 178.04605469 -91.91789062 178.04605469 -93.109375 176.9453125 C-95 175 -95 175 -96 173 C-97.485 172.01 -97.485 172.01 -99 171 C-100.5703125 168.57421875 -100.5703125 168.57421875 -102.125 165.6875 C-102.90230469 164.27017578 -102.90230469 164.27017578 -103.6953125 162.82421875 C-104.9225665 160.16761803 -105.56965091 157.88123966 -106 155 C-106.66 155 -107.32 155 -108 155 C-108.33 154.01 -108.66 153.02 -109 152 C-108.505 151.01 -108.505 151.01 -108 150 C-108.66 150 -109.32 150 -110 150 C-110.89993504 146.01457342 -111.33658763 142.04875639 -111.71875 137.98828125 C-111.90252406 135.93034156 -111.90252406 135.93034156 -113 134 C-113.23988901 130.77661746 -113.18520013 127.54382172 -113.1875 124.3125 C-113.19974609 123.42626953 -113.21199219 122.54003906 -113.22460938 121.62695312 C-113.23628846 116.36747173 -112.6987037 112.03100398 -111 107 C-110.64679688 105.76378906 -110.29359375 104.52757812 -109.9296875 103.25390625 C-108.953125 99.8359375 -107.9765625 96.41796875 -107 93 C-106.34 93 -105.68 93 -105 93 C-105 91.35 -105 89.7 -105 88 C-103.515 87.505 -103.515 87.505 -102 87 C-101.96519531 86.14792969 -101.93039062 85.29585938 -101.89453125 84.41796875 C-100.66988596 79.73864722 -98.14747794 77.55458573 -94.6875 74.3125 C-94.10548828 73.74466797 -93.52347656 73.17683594 -92.92382812 72.59179688 C-90.08529417 69.84970235 -87.24281784 67.26596901 -84 65 C-83.505 65.495 -83.505 65.495 -83 66 C-82.319375 65.38125 -81.63875 64.7625 -80.9375 64.125 C-77.54118766 61.6680932 -75.03981179 60.95054395 -71 60 C-71 59.67 -71 59.34 -71 59 C-69.7625 58.855625 -68.525 58.71125 -67.25 58.5625 C-64.4277748 58.21034185 -61.74463301 57.75714014 -59 57 C-45.15302262 53.80641895 -30.47452718 56.50470411 -18 63 C-16.906875 63.33 -15.81375 63.66 -14.6875 64 C-13.800625 64.33 -12.91375 64.66 -12 65 C-11.67 65.99 -11.34 66.98 -11 68 C-9.33720673 69.0064275 -7.67016516 70.00585407 -6 71 C-4.98199424 72.31963709 -3.97751635 73.65009646 -3 75 C-2.34 75 -1.68 75 -1 75 C-0.67 50.25 -0.34 25.5 0 0 Z M-51 78 C-51.94875 77.979375 -52.8975 77.95875 -53.875 77.9375 C-58.09689993 78.021938 -61.10683151 79.38903373 -65 81 C-65 81.66 -65 82.32 -65 83 C-66.33998047 83.36544922 -66.33998047 83.36544922 -67.70703125 83.73828125 C-73.96031173 86.13425942 -79.31815842 91.74597047 -82.0625 97.875 C-83.14367394 100.93514718 -83.14367394 100.93514718 -83 104 C-83.66 104 -84.32 104 -85 104 C-85.33 106.97 -85.66 109.94 -86 113 C-86.66 113 -87.32 113 -88 113 C-88.05796132 117.10410755 -88.09358313 121.20811016 -88.125 125.3125 C-88.14175781 126.47974609 -88.15851563 127.64699219 -88.17578125 128.84960938 C-88.18222656 129.96787109 -88.18867188 131.08613281 -88.1953125 132.23828125 C-88.20578613 133.26993408 -88.21625977 134.30158691 -88.22705078 135.36450195 C-88.19297515 138.23187592 -88.19297515 138.23187592 -86 141 C-85.53169215 142.63907747 -85.06368398 144.27824154 -84.59765625 145.91796875 C-84.40042969 146.60503906 -84.20320313 147.29210937 -84 148 C-83.79246094 148.77988281 -83.58492188 149.55976563 -83.37109375 150.36328125 C-80.81932812 158.2897803 -75.95674932 162.62398027 -69 167 C-54.86624065 173.80694847 -43.12474495 173.61819387 -28 171 C-28 170.34 -28 169.68 -28 169 C-26.35 169 -24.7 169 -23 169 C-22.67 168.34 -22.34 167.68 -22 167 C-21.24203125 166.70867187 -20.4840625 166.41734375 -19.703125 166.1171875 C-16.68304783 164.86900532 -15.03726038 163.43845039 -12.75 161.125 C-12.06421875 160.44695312 -11.3784375 159.76890625 -10.671875 159.0703125 C-8.95299092 156.94178782 -8.56584388 155.61419874 -8 153 C-7.34 152.67 -6.68 152.34 -6 152 C-0.82294694 143.15586769 -0.66033975 134.48410875 -0.6875 124.5 C-0.67138672 123.31535156 -0.65527344 122.13070312 -0.63867188 120.91015625 C-0.63342249 111.49276763 -2.62230576 105.33846522 -7 97 C-7.66 97 -8.32 97 -9 97 C-9 95.68 -9 94.36 -9 93 C-9.66 93 -10.32 93 -11 93 C-11.2475 92.401875 -11.495 91.80375 -11.75 91.1875 C-13.18072525 88.68373081 -14.5691582 87.51927612 -17 86 C-17.66 86 -18.32 86 -19 86 C-19 85.34 -19 84.68 -19 84 C-21.30643057 80.96522293 -23.35464136 80.63793776 -27 80 C-27.99 79.34 -28.98 78.68 -30 78 C-32.60399007 77.5780959 -32.60399007 77.5780959 -35.4375 77.4375 C-40.67256637 77.08849558 -40.67256637 77.08849558 -43.16796875 76.4140625 C-46.02394864 75.76857451 -48.26961365 77.07166864 -51 78 Z M-75 84 C-74.34 84.66 -73.68 85.32 -73 86 C-73 85.34 -73 84.68 -73 84 C-73.66 84 -74.32 84 -75 84 Z M-79 88 C-78 90 -78 90 -78 90 Z M-112 114 C-111 116 -111 116 -111 116 Z " fill="#E1F772" transform="translate(468,160)"/>
<path d="M0 0 C1.28910278 0.35300171 1.28910278 0.35300171 2.60424805 0.71313477 C8.04880631 2.36205812 12.37757027 4.66216604 16.9921875 7.98583984 C18.93126199 9.32744172 20.86853298 10.37438137 23 11.375 C23 12.035 23 12.695 23 13.375 C23.5775 13.6225 24.155 13.87 24.75 14.125 C27.37223092 15.58179496 29.09253081 17.05878742 31 19.375 C31 20.695 31 22.015 31 23.375 C31.61875 23.643125 32.2375 23.91125 32.875 24.1875 C35 25.375 35 25.375 37 28.375 C37 29.695 37 31.015 37 32.375 C37.66 32.375 38.32 32.375 39 32.375 C40.35439668 35.08379335 40.06501451 37.38433268 40 40.375 C40.99 40.705 41.98 41.035 43 41.375 C44.38790626 49.19436472 45.1942457 56.75540031 45.1875 64.6875 C45.18814453 65.43443115 45.18878906 66.1813623 45.18945312 66.95092773 C45.13534218 72.23965782 45.13534218 72.23965782 44 73.375 C42.63391674 73.47035213 41.26294545 73.4968867 39.89353943 73.49525452 C39.00867859 73.49662918 38.12381775 73.49800385 37.21214294 73.49942017 C35.74479454 73.49402725 35.74479454 73.49402725 34.24780273 73.48852539 C33.2235318 73.48867142 32.19926086 73.48881744 31.14395142 73.4889679 C27.74047771 73.48826828 24.33705796 73.48047363 20.93359375 73.47265625 C18.58089732 73.47079224 16.2282005 73.46936826 13.87550354 73.46836853 C7.66943295 73.46454199 1.4633856 73.45471055 -4.74267578 73.44366455 C-11.06998378 73.43345334 -17.39729552 73.42887154 -23.72460938 73.42382812 C-36.14974982 73.4130884 -48.57487298 73.39601036 -61 73.375 C-61.33 78.325 -61.66 83.275 -62 88.375 C-60.515 88.87 -60.515 88.87 -59 89.375 C-59 91.025 -59 92.675 -59 94.375 C-57.515 94.87 -57.515 94.87 -56 95.375 C-55.6278958 96.69803717 -55.29369827 98.03237935 -55 99.375 C-54.01 99.87 -54.01 99.87 -53 100.375 C-53 101.035 -53 101.695 -53 102.375 C-52.01 102.375 -51.02 102.375 -50 102.375 C-49.77828125 102.98085938 -49.5565625 103.58671875 -49.328125 104.2109375 C-46.74416395 108.42127404 -41.42611863 109.59445014 -37 111.375 C-35.989375 111.7875 -34.97875 112.2 -33.9375 112.625 C-30.35869768 113.53873676 -26.85009161 113.85582653 -23.171875 114.12890625 C-21 114.375 -21 114.375 -19 115.375 C-19 114.715 -19 114.055 -19 113.375 C-16.69 113.705 -14.38 114.035 -12 114.375 C-12 114.045 -12 113.715 -12 113.375 C-11.32453125 113.25382812 -10.6490625 113.13265625 -9.953125 113.0078125 C-9.06109375 112.84023438 -8.1690625 112.67265625 -7.25 112.5 C-6.36828125 112.33757812 -5.4865625 112.17515625 -4.578125 112.0078125 C-0.45746204 110.99637705 2.24063065 109.3921269 5.1640625 106.3359375 C6.01097656 105.46582031 6.01097656 105.46582031 6.875 104.578125 C7.4525 103.97484375 8.03 103.3715625 8.625 102.75 C9.77917517 101.54498011 10.93781463 100.34421513 12.1015625 99.1484375 C12.61025879 98.61653809 13.11895508 98.08463867 13.64306641 97.53662109 C15 96.375 15 96.375 17 96.375 C17 94.725 17 93.075 17 91.375 C17.99 91.045 18.98 90.715 20 90.375 C20 89.715 20 89.055 20 88.375 C22.89608593 88.32086755 25.79115195 88.28126359 28.6875 88.25 C29.50412109 88.23324219 30.32074219 88.21648437 31.16210938 88.19921875 C35.57092929 88.1635198 38.98731576 88.29919186 43 90.375 C42.67 92.355 42.34 94.335 42 96.375 C41.34 96.375 40.68 96.375 40 96.375 C40 98.025 40 99.675 40 101.375 C38.515 101.87 38.515 101.87 37 102.375 C36.9175 103.1175 36.835 103.86 36.75 104.625 C35.84243557 107.95273626 34.44772771 108.99926428 32 111.375 C31.54625 112.385625 31.0925 113.39625 30.625 114.4375 C28.57690588 118.13982399 26.79515639 118.62338936 23 120.375 C21.84894663 121.32340313 20.72504624 122.30538004 19.625 123.3125 C14.99147903 127.44260073 10.00778638 129.91969771 4 131.375 C3.34 131.705 2.68 132.035 2 132.375 C-0.98314523 132.65260436 -3.96621199 132.82147449 -6.95703125 132.99609375 C-9.98066747 133.37259274 -12.19397601 134.24536071 -15 135.375 C-20.01250098 135.83708993 -25.12060706 135.67617145 -30 134.375 C-30 133.715 -30 133.055 -30 132.375 C-31.26457031 132.39240234 -31.26457031 132.39240234 -32.5546875 132.41015625 C-34.19824219 132.42369141 -34.19824219 132.42369141 -35.875 132.4375 C-37.51082031 132.45490234 -37.51082031 132.45490234 -39.1796875 132.47265625 C-42 132.375 -42 132.375 -44 131.375 C-44 130.715 -44 130.055 -44 129.375 C-45.65 129.375 -47.3 129.375 -49 129.375 C-49 128.715 -49 128.055 -49 127.375 C-50.65 127.375 -52.3 127.375 -54 127.375 C-54.33 126.385 -54.66 125.395 -55 124.375 C-55.886875 124.313125 -56.77375 124.25125 -57.6875 124.1875 C-61.81641038 123.1747484 -63.17509908 121.48963435 -66 118.375 C-66.86625 117.715 -67.7325 117.055 -68.625 116.375 C-71.19594363 114.20999484 -72.39409461 112.30752288 -74 109.375 C-74.66 108.385 -75.32 107.395 -76 106.375 C-76.66 105.385 -77.32 104.395 -78 103.375 C-78.48210938 102.66085937 -78.96421875 101.94671875 -79.4609375 101.2109375 C-81.42421318 97.593328 -82.50713754 93.94702053 -83.625 90 C-83.8415625 89.27039063 -84.058125 88.54078125 -84.28125 87.7890625 C-86.54213415 79.97366049 -87.18145176 72.47963799 -87.1875 64.375 C-87.19974609 63.51132812 -87.21199219 62.64765625 -87.22460938 61.7578125 C-87.23640345 56.58414575 -86.61215669 52.34118381 -85 47.375 C-84.79164408 45.96386215 -84.6155891 44.54674589 -84.5 43.125 C-84 39.375 -84 39.375 -82 36.375 C-81.835 35.50875 -81.67 34.6425 -81.5 33.75 C-81.2525 32.574375 -81.2525 32.574375 -81 31.375 C-80.01 30.88 -80.01 30.88 -79 30.375 C-78.71125 29.570625 -78.4225 28.76625 -78.125 27.9375 C-77 25.375 -77 25.375 -74.9375 24.4375 C-74.298125 24.086875 -73.65875 23.73625 -73 23.375 C-72.896875 22.4675 -72.79375 21.56 -72.6875 20.625 C-71.8047784 16.45213428 -70.05206723 15.15440612 -66.88671875 12.4765625 C-65 11.375 -65 11.375 -61 11.375 C-60.773125 10.75625 -60.54625 10.1375 -60.3125 9.5 C-58.61545208 6.75239861 -56.97485929 6.44289821 -54 5.375 C-53.67 4.715 -53.34 4.055 -53 3.375 C-51.15234375 2.7421875 -51.15234375 2.7421875 -48.9375 2.25 C-48.20402344 2.08242187 -47.47054687 1.91484375 -46.71484375 1.7421875 C-46.14894531 1.62101563 -45.58304688 1.49984375 -45 1.375 C-45 1.045 -45 0.715 -45 0.375 C-42.03 0.375 -39.06 0.375 -36 0.375 C-36 -0.285 -36 -0.945 -36 -1.625 C-23.40562133 -3.31636495 -12.28034058 -3.43657707 0 0 Z M-33 17.375 C-33.33 18.035 -33.66 18.695 -34 19.375 C-35.85546875 20.05078125 -35.85546875 20.05078125 -38.1875 20.6875 C-42.80902796 22.13449597 -45.58112897 23.95612897 -49 27.375 C-49 28.035 -49 28.695 -49 29.375 C-49.99 29.705 -50.98 30.035 -52 30.375 C-53.89185204 32.05412355 -53.89185204 32.05412355 -55.6875 34.125 C-56.62142578 35.13820313 -56.62142578 35.13820313 -57.57421875 36.171875 C-59.28506071 38.81547736 -59.02546346 40.29901409 -59 43.375 C-59.99 44.035 -60.98 44.695 -62 45.375 C-62.5540567 51.25989457 -62.5540567 51.25989457 -60 56.375 C-57.39712638 56.6614952 -55.03294626 56.75348245 -52.42919922 56.71557617 C-51.64862152 56.71601425 -50.86804382 56.71645233 -50.06381226 56.71690369 C-47.47718511 56.71480941 -44.89120176 56.69144883 -42.3046875 56.66796875 C-40.51392979 56.66237506 -38.7231675 56.65810389 -36.93240356 56.65510559 C-32.21404392 56.64363895 -27.49596036 56.61415625 -22.77770996 56.58099365 C-17.96512589 56.55033187 -13.1524973 56.5366086 -8.33984375 56.52148438 C1.10689228 56.48928819 10.5534232 56.43806998 20 56.375 C20.0272415 54.95844207 20.04650467 53.54172955 20.0625 52.125 C20.07410156 51.33609375 20.08570313 50.5471875 20.09765625 49.734375 C20.00385306 47.46808998 19.63241063 45.5461105 19 43.375 C18.34 43.375 17.68 43.375 17 43.375 C17.0825 42.67375 17.165 41.9725 17.25 41.25 C16.6886284 34.7942266 10.50002862 28.74202284 6 24.375 C5.34 24.375 4.68 24.375 4 24.375 C4 23.715 4 23.055 4 22.375 C3.0409375 22.189375 3.0409375 22.189375 2.0625 22 C1.0415625 21.690625 1.0415625 21.690625 0 21.375 C-0.495 20.385 -0.495 20.385 -1 19.375 C-2.65 19.375 -4.3 19.375 -6 19.375 C-6.495 18.385 -6.495 18.385 -7 17.375 C-15.58 17.375 -24.16 17.375 -33 17.375 Z M33 104.375 C33.66 105.035 34.32 105.695 35 106.375 C35 105.715 35 105.055 35 104.375 C34.34 104.375 33.68 104.375 33 104.375 Z M32 105.375 C33 107.375 33 107.375 33 107.375 Z M28 112.375 C29 114.375 29 114.375 29 114.375 Z M26 113.375 C27 115.375 27 115.375 27 115.375 Z " fill="#E1F772" transform="translate(591,218.625)"/>
<path d="M0 0 C3.77081722 -0.02899599 7.54160583 -0.04679729 11.3125 -0.0625 C12.38435547 -0.07087891 13.45621094 -0.07925781 14.56054688 -0.08789062 C16.10258789 -0.09272461 16.10258789 -0.09272461 17.67578125 -0.09765625 C18.62364502 -0.10289307 19.57150879 -0.10812988 20.5480957 -0.11352539 C23 0 23 0 26 1 C27.35439668 3.70879335 27.06501451 6.00933268 27 9 C27.66 9 28.32 9 29 9 C29.12117188 9.56589844 29.24234375 10.13179687 29.3671875 10.71484375 C29.53476563 11.44832031 29.70234375 12.18179688 29.875 12.9375 C30.11863281 14.03384766 30.11863281 14.03384766 30.3671875 15.15234375 C30.82961523 17.20700294 30.82961523 17.20700294 33 18 C33.74023321 19.97395523 34.38761101 21.98271862 35 24 C35.51876735 25.52153929 36.03970682 27.04233926 36.5625 28.5625 C37.82060601 32.33681804 39 35.98797192 39 40 C39.66 40 40.32 40 41 40 C42 43 42 43 41 46 C41.66 46 42.32 46 43 46 C44.35439668 48.70879335 44.06501451 51.00933268 44 54 C44.66 54 45.32 54 46 54 C47.4783226 56.95664519 47.06032783 59.74229737 47 63 C47.99 63.33 48.98 63.66 50 64 C52.41256386 68.55706506 53.38284419 71.76779612 53 77 C53.99 77.33 54.98 77.66 56 78 C55.9071875 79.36125 55.9071875 79.36125 55.8125 80.75 C56.02171921 84.37646635 56.82338226 85.25556894 59 88 C58.505 89.485 58.505 89.485 58 91 C58.66 91 59.32 91 60 91 C61.35439668 93.70879335 61.06501451 96.00933268 61 99 C61.99 99.33 62.98 99.66 64 100 C64 101.65 64 103.3 64 105 C64.66 105 65.32 105 66 105 C66.99 108.465 66.99 108.465 68 112 C68.33 112 68.66 112 69 112 C69.12375 110.9275 69.2475 109.855 69.375 108.75 C69.90396861 105.57618837 70.48102452 103.73415587 72 101 C72 100.34 72 99.68 72 99 C72.66 98.34 73.32 97.68 74 97 C74.39764263 95.01178687 74.73775349 93.01055661 75 91 C75.66 91 76.32 91 77 91 C77.07347656 89.96939453 77.07347656 89.96939453 77.1484375 88.91796875 C77.26058594 87.56638672 77.26058594 87.56638672 77.375 86.1875 C77.47941406 84.84751953 77.47941406 84.84751953 77.5859375 83.48046875 C78 81 78 81 80 78 C80.165 76.80375 80.33 75.6075 80.5 74.375 C80.665 73.26125 80.83 72.1475 81 71 C81.66 70.67 82.32 70.34 83 70 C83.65555119 67.47266765 83.65555119 67.47266765 84 65 C84.66 65 85.32 65 86 65 C86.103125 63.865625 86.20625 62.73125 86.3125 61.5625 C86.89110501 56.80602649 88.35073697 52.48101654 90 48 C90.66 48 91.32 48 92 48 C92 45.36 92 42.72 92 40 C92.66 39.67 93.32 39.34 94 39 C94.40729228 36.67843403 94.74438677 34.3431213 95 32 C95.66 32 96.32 32 97 32 C97.144375 30.906875 97.28875 29.81375 97.4375 28.6875 C98 25 98 25 99 22 C99.66 22 100.32 22 101 22 C100.9175 21.154375 100.835 20.30875 100.75 19.4375 C101.01680215 15.76897047 102.11004345 13.86901034 104.05078125 10.8046875 C105.51582137 8.01930257 105.636202 5.09228303 106 2 C108.48432897 -0.48432897 109.26028538 -0.25654203 112.68359375 -0.265625 C113.61107422 -0.26820313 114.53855469 -0.27078125 115.49414062 -0.2734375 C116.95110352 -0.26183594 116.95110352 -0.26183594 118.4375 -0.25 C119.88866211 -0.26160156 119.88866211 -0.26160156 121.36914062 -0.2734375 C122.76229492 -0.26957031 122.76229492 -0.26957031 124.18359375 -0.265625 C125.03493896 -0.26336914 125.88628418 -0.26111328 126.76342773 -0.25878906 C129 0 129 0 132 2 C132.3125 4.5 132.3125 4.5 132 7 C131.34 7.66 130.68 8.32 130 9 C129.32707499 10.96690374 129.32707499 10.96690374 128.875 13.125 C128.58625 14.40375 128.2975 15.6825 128 17 C127.34 17 126.68 17 126 17 C126 18.65 126 20.3 126 22 C124.515 22.495 124.515 22.495 123 23 C123.04125 24.11375 123.0825 25.2275 123.125 26.375 C123 30 123 30 121 32 C120.32707499 33.96690374 120.32707499 33.96690374 119.875 36.125 C119.58625 37.40375 119.2975 38.6825 119 40 C118.34 40 117.68 40 117 40 C117.495 41.98 117.495 41.98 118 44 C116.515 44.495 116.515 44.495 115 45 C115.020625 46.11375 115.04125 47.2275 115.0625 48.375 C115 52 115 52 114 54 C113.34 54 112.68 54 112 54 C112.020625 54.94875 112.04125 55.8975 112.0625 56.875 C112 60 112 60 111 62 C110.34 62 109.68 62 109 62 C109 63.65 109 65.3 109 67 C107.515 67.495 107.515 67.495 106 68 C106 70.64 106 73.28 106 76 C105.01 76.495 105.01 76.495 104 77 C103.64820803 79.3306218 103.31669821 81.66435067 103 84 C102.3399149 85.33660386 101.67261677 86.66965835 101 88 C100.23540387 90.60603185 99.55297018 93.22469354 98.87890625 95.85546875 C98.58886719 96.56316406 98.29882812 97.27085937 98 98 C96.515 98.495 96.515 98.495 95 99 C95.04125 100.11375 95.0825 101.2275 95.125 102.375 C95 106 95 106 93 108 C92.32707499 109.96690374 92.32707499 109.96690374 91.875 112.125 C91.58625 113.40375 91.2975 114.6825 91 116 C90.34 116 89.68 116 89 116 C89.33 117.32 89.66 118.64 90 120 C88.515 120.495 88.515 120.495 87 121 C87.04125 122.11375 87.0825 123.2275 87.125 124.375 C87 128 87 128 85 130 C84.32707499 131.96690374 84.32707499 131.96690374 83.875 134.125 C83.58625 135.40375 83.2975 136.6825 83 138 C82.34 138 81.68 138 81 138 C81 139.65 81 141.3 81 143 C80.01 143.33 79.02 143.66 78 144 C78 146.64 78 149.28 78 152 C77.01 152 76.02 152 75 152 C75 153.65 75 155.3 75 157 C74.01 157.33 73.02 157.66 72 158 C72.33 159.32 72.66 160.64 73 162 C71.02 162.99 71.02 162.99 69 164 C69.35771484 164.86044922 69.35771484 164.86044922 69.72265625 165.73828125 C70 168 70 168 68.55859375 170.10546875 C61.53470919 177 61.53470919 177 56 177 C55.67 177.99 55.34 178.98 55 180 C53.35 180 51.7 180 50 180 C50 180.66 50 181.32 50 182 C47.26893489 182.91035504 45.70106761 183.12215713 42.89575195 183.11352539 C41.6648156 183.11341209 41.6648156 183.11341209 40.40901184 183.11329651 C39.0870002 183.10555458 39.0870002 183.10555458 37.73828125 183.09765625 C36.83248825 183.0962413 35.92669525 183.09482635 34.99345398 183.09336853 C32.09976909 183.08777001 29.20616151 183.07521781 26.3125 183.0625 C24.35091258 183.05748481 22.38932394 183.05292193 20.42773438 183.04882812 C15.61845979 183.03780107 10.809243 183.02053747 6 183 C4.82573736 180.65147472 4.88491827 179.26225935 4.90234375 176.6484375 C4.90484131 175.88192871 4.90733887 175.11541992 4.90991211 174.32568359 C4.92356812 172.86509521 4.92356812 172.86509521 4.9375 171.375 C4.958125 168.28125 4.97875 165.1875 5 162 C20.84 162.495 20.84 162.495 37 163 C37 162.34 37 161.68 37 161 C37.99 160.835 38.98 160.67 40 160.5 C45.39366706 158.83447091 49.27350124 155.98362558 52 151 C53.40090824 143.78864949 53.07870004 135.67789972 50 129 C49.68804688 128.05640625 49.37609375 127.1128125 49.0546875 126.140625 C47.87306214 122.62200727 46.51870047 119.18820771 45.125 115.75 C44.59114198 114.42448072 44.05728782 113.09895988 43.5234375 111.7734375 C43.26401367 111.13116211 43.00458984 110.48888672 42.73730469 109.82714844 C41.73583928 107.34537126 40.74263535 104.86032008 39.75 102.375 C39.45609375 101.64023437 39.1621875 100.90546875 38.859375 100.1484375 C38.24928107 98.62320268 37.64143943 97.0970661 37.03515625 95.5703125 C35.94684532 92.86801592 34.81947156 90.18428434 33.6875 87.5 C24 64.28439349 24 64.28439349 24 60 C23.34 60 22.68 60 22 60 C21.938125 59.21625 21.87625 58.4325 21.8125 57.625 C20.87150018 53.42669311 19.14304878 50.20269086 17.05859375 46.46484375 C15.90218394 43.77224379 15.79849302 41.8986004 16 39 C15.34 38.67 14.68 38.34 14 38 C13.375 34.9375 13.375 34.9375 13 32 C12.34 32 11.68 32 11 32 C10.938125 31.21625 10.87625 30.4325 10.8125 29.625 C9.87150018 25.42669311 8.14304878 22.20269086 6.05859375 18.46484375 C4.90218394 15.77224379 4.79849302 13.8986004 5 11 C4.34 11 3.68 11 3 11 C2.49384702 9.73160474 1.99530901 8.46016898 1.5 7.1875 C1.2215625 6.47980469 0.943125 5.77210938 0.65625 5.04296875 C0 3 0 3 0 0 Z M95 95 C96 97 96 97 96 97 Z M66 166 C67 168 67 168 67 168 Z M58 173 C58 173.66 58 174.32 58 175 C58.66 174.67 59.32 174.34 60 174 C59.34 173.67 58.68 173.34 58 173 Z " fill="#E1F873" transform="translate(1018,219)"/>
<path d="M0 0 C1.17175781 -0.01836914 1.17175781 -0.01836914 2.3671875 -0.03710938 C7.01956615 -0.04885781 10.5949707 0.54117592 15 2.1875 C17.20647381 2.48452883 17.20647381 2.48452883 19.3125 2.5625 C27.74366487 3.40985325 33.77507799 7.44312103 40.15234375 12.796875 C41.88091123 14.38795016 41.88091123 14.38795016 44 14.1875 C44.4125 15.095 44.825 16.0025 45.25 16.9375 C46.90076745 20.00321099 48.48483291 21.84001072 51 24.1875 C52.35439668 26.89629335 52.06501451 29.19683268 52 32.1875 C53.485 32.6825 53.485 32.6825 55 33.1875 C55 36.1575 55 39.1275 55 42.1875 C51.56244791 42.214426 48.12510592 42.23430317 44.6875 42.25 C43.71103516 42.25837891 42.73457031 42.26675781 41.72851562 42.27539062 C40.79072266 42.27861328 39.85292969 42.28183594 38.88671875 42.28515625 C38.02264404 42.29039307 37.15856934 42.29562988 36.26831055 42.30102539 C34 42.1875 34 42.1875 31 41.1875 C30.87625 40.465625 30.7525 39.74375 30.625 39 C30.00488405 36.20947823 29.14062102 33.80421881 28 31.1875 C27.71125 30.465625 27.4225 29.74375 27.125 29 C25.73918442 26.76729713 24.40534558 26.14963823 22 25.1875 C22 24.5275 22 23.8675 22 23.1875 C20.35 23.1875 18.7 23.1875 17 23.1875 C16.505 21.7025 16.505 21.7025 16 20.1875 C11.6213617 20.2809535 7.24326804 20.38702754 2.86523438 20.50488281 C1.37541111 20.54319998 -0.11450554 20.57804808 -1.60449219 20.609375 C-3.74448048 20.65496729 -5.88382436 20.71296874 -8.0234375 20.7734375 C-9.31169434 20.8048584 -10.59995117 20.8362793 -11.92724609 20.86865234 C-15.10481505 20.87208268 -15.10481505 20.87208268 -17 23.1875 C-17.721875 23.414375 -18.44375 23.64125 -19.1875 23.875 C-23.46491127 25.87112526 -26.54499368 28.09141128 -29 32.1875 C-29.87465033 36.86764651 -30.04615535 41.43349916 -30 46.1875 C-29.39671875 46.46464844 -28.7934375 46.74179687 -28.171875 47.02734375 C-26 48.1875 -26 48.1875 -23.25 50.75 C-19.71767508 53.82946275 -16.59371074 53.94989427 -12 54.1875 C-12 54.5175 -12 54.8475 -12 55.1875 C-10.95199219 55.32027344 -9.90398438 55.45304687 -8.82421875 55.58984375 C-7.44529222 55.76807235 -6.06638707 55.94646641 -4.6875 56.125 C-3.99720703 56.21201172 -3.30691406 56.29902344 -2.59570312 56.38867188 C0.40142288 56.77960135 3.12450119 57.2290004 6 58.1875 C7.51960001 58.29091323 9.0408454 58.37082343 10.5625 58.4375 C24.29635861 59.60633903 41.24290012 63.93003602 51 74.1875 C51.875 77.5 51.875 77.5 52 80.1875 C53.485 80.6825 53.485 80.6825 55 81.1875 C54.505 83.1675 54.505 83.1675 54 85.1875 C54.66 85.1875 55.32 85.1875 56 85.1875 C57.75354414 88.69458827 57.18464284 92.69961749 57.1875 96.5625 C57.19974609 97.42617188 57.21199219 98.28984375 57.22460938 99.1796875 C57.22654297 100.015 57.22847656 100.8503125 57.23046875 101.7109375 C57.23457764 102.47325684 57.23868652 103.23557617 57.24291992 104.02099609 C56.96772092 106.47538398 56.18221078 108.03567259 55 110.1875 C54.505 111.6725 54.505 111.6725 54 113.1875 C53.34 113.1875 52.68 113.1875 52 113.1875 C51.9071875 113.9196875 51.814375 114.651875 51.71875 115.40625 C50.23462092 121.14918426 45.36886942 125.57010767 40.57421875 128.84375 C36.77501944 130.98274274 33.14217478 132.68345887 28.875 133.6875 C27.00094893 134.01953898 27.00094893 134.01953898 26 135.1875 C23.58313939 135.47424617 21.16573504 135.6354673 18.73828125 135.80859375 C15.94098238 136.09721297 15.94098238 136.09721297 13.203125 137.2109375 C9.18209212 138.43686216 5.61076355 138.44425066 1.4375 138.375 C0.69564453 138.37435547 -0.04621094 138.37371094 -0.81054688 138.37304688 C-4.65724828 138.34221846 -8.26124311 138.11293487 -12 137.1875 C-12 136.5275 -12 135.8675 -12 135.1875 C-15.63 135.1875 -19.26 135.1875 -23 135.1875 C-23.33 134.5275 -23.66 133.8675 -24 133.1875 C-26.32156597 132.78020772 -28.6568787 132.44311323 -31 132.1875 C-31.33 131.1975 -31.66 130.2075 -32 129.1875 C-32.5775 129.435 -33.155 129.6825 -33.75 129.9375 C-34.4925 130.02 -35.235 130.1025 -36 130.1875 C-38.25 128.375 -38.25 128.375 -40 126.1875 C-40 125.5275 -40 124.8675 -40 124.1875 C-40.763125 124.084375 -41.52625 123.98125 -42.3125 123.875 C-45.18416484 123.14038806 -46.23042094 122.5158935 -48 120.1875 C-48 119.5275 -48 118.8675 -48 118.1875 C-48.66 118.1875 -49.32 118.1875 -50 118.1875 C-50.33 116.8675 -50.66 115.5475 -51 114.1875 C-51.99 114.1875 -52.98 114.1875 -54 114.1875 C-54.2165625 112.57875 -54.2165625 112.57875 -54.4375 110.9375 C-54.88025619 107.45345275 -54.88025619 107.45345275 -55.5625 105.1875 C-56.21827642 102.18966494 -56.0587617 99.24310818 -56 96.1875 C-53.67656444 95.02578222 -52.30366684 95.05846031 -49.71875 95.0546875 C-48.87699219 95.05339844 -48.03523437 95.05210937 -47.16796875 95.05078125 C-45.84732422 95.05658203 -45.84732422 95.05658203 -44.5 95.0625 C-43.61957031 95.05863281 -42.73914063 95.05476563 -41.83203125 95.05078125 C-40.56939453 95.05271484 -40.56939453 95.05271484 -39.28125 95.0546875 C-38.50845703 95.05581543 -37.73566406 95.05694336 -36.93945312 95.05810547 C-35 95.1875 -35 95.1875 -33 96.1875 C-31.76554631 99.30994168 -31.01044299 102.09699408 -30.625 105.4375 C-30.41875 106.345 -30.2125 107.2525 -30 108.1875 C-28.26857146 109.34672128 -28.26857146 109.34672128 -26 110.1875 C-24.576875 111.425 -24.576875 111.425 -23.125 112.6875 C-15.27404623 119.34416903 -3.66266473 118.33797992 6.0625 118.25 C7.02349609 118.24548828 7.98449219 118.24097656 8.97460938 118.23632812 C11.31647422 118.22467706 13.65820181 118.20832025 16 118.1875 C16 117.5275 16 116.8675 16 116.1875 C17.65 116.1875 19.3 116.1875 21 116.1875 C21.495 114.7025 21.495 114.7025 22 113.1875 C22.33 113.5175 22.66 113.8475 23 114.1875 C23.5775 113.589375 24.155 112.99125 24.75 112.375 C27 110.1875 27 110.1875 29.1875 108.875 C31.96888804 106.28543182 31.75620957 103.90530407 32 100.1875 C32.0515625 99.51976562 32.103125 98.85203125 32.15625 98.1640625 C32.37620629 93.38001328 31.65474569 90.16961854 29 86.1875 C26.21812795 84.55674742 23.3102065 83.55256681 20.25 82.5625 C19.45078125 82.30210937 18.6515625 82.04171875 17.828125 81.7734375 C17.22484375 81.58007812 16.6215625 81.38671875 16 81.1875 C16 80.5275 16 79.8675 16 79.1875 C15.02417969 79.19910156 14.04835938 79.21070313 13.04296875 79.22265625 C11.77066406 79.23167969 10.49835938 79.24070312 9.1875 79.25 C7.29064453 79.26740234 7.29064453 79.26740234 5.35546875 79.28515625 C2 79.1875 2 79.1875 -1 78.1875 C-1 77.5275 -1 76.8675 -1 76.1875 C-2.05960938 76.19910156 -3.11921875 76.21070313 -4.2109375 76.22265625 C-5.59895658 76.23203476 -6.98697755 76.24113489 -8.375 76.25 C-9.07367187 76.25837891 -9.77234375 76.26675781 -10.4921875 76.27539062 C-15.7734375 76.30078125 -15.7734375 76.30078125 -18 75.1875 C-18 74.5275 -18 73.8675 -18 73.1875 C-18.62648438 73.19910156 -19.25296875 73.21070313 -19.8984375 73.22265625 C-20.71570313 73.23167969 -21.53296875 73.24070312 -22.375 73.25 C-23.18710937 73.26160156 -23.99921875 73.27320313 -24.8359375 73.28515625 C-27 73.1875 -27 73.1875 -29 72.1875 C-29 71.5275 -29 70.8675 -29 70.1875 C-29.928125 70.496875 -29.928125 70.496875 -30.875 70.8125 C-31.57625 70.93625 -32.2775 71.06 -33 71.1875 C-33.66 70.5275 -34.32 69.8675 -35 69.1875 C-35.721875 68.960625 -36.44375 68.73375 -37.1875 68.5 C-44.77407392 64.95959884 -49.18649674 57.61710888 -52.35400391 50.15820312 C-53.43055737 46.87402338 -53.39421295 43.59983274 -53.3125 40.1875 C-53.31572266 39.51460937 -53.31894531 38.84171875 -53.32226562 38.1484375 C-53.21882202 28.40593084 -49.96358599 20.72397898 -43.125 13.875 C-42.28195312 13.01261719 -41.43890625 12.15023437 -40.5703125 11.26171875 C-37.87271935 9.08478567 -36.34945179 8.68349896 -33 8.1875 C-32.67 7.5275 -32.34 6.8675 -32 6.1875 C-30.35 6.1875 -28.7 6.1875 -27 6.1875 C-27 5.5275 -27 4.8675 -27 4.1875 C-25.37604003 3.68413233 -23.75079459 3.18491024 -22.125 2.6875 C-21.22007812 2.4090625 -20.31515625 2.130625 -19.3828125 1.84375 C-17 1.1875 -17 1.1875 -15 1.1875 C-14.154375 1.02636719 -13.30875 0.86523438 -12.4375 0.69921875 C-8.26336679 0.0778421 -4.2133196 0.00347634 0 0 Z M49 115.1875 C50 117.1875 50 117.1875 50 117.1875 Z " fill="#DFF571" transform="translate(830,215.8125)"/>
<path d="M0 0 C14.61041503 -0.55599888 28.95824799 3.35490474 40.7578125 12.234375 C42.3828125 14.23828125 42.3828125 14.23828125 43.7578125 16.234375 C44.79453227 17.36393534 45.83612182 18.48904779 46.8828125 19.609375 C49.58644083 22.70784014 50.55319688 25.03975482 50.7578125 29.234375 C51.4178125 29.234375 52.0778125 29.234375 52.7578125 29.234375 C54.41506505 32.21742958 55.17121085 34.88236557 55.7578125 38.234375 C55.92935569 38.86319706 56.10089888 39.49201912 56.27764034 40.13989639 C56.76244005 42.25456006 56.88099356 44.08038703 56.87806702 46.24603271 C56.88012901 47.42805519 56.88012901 47.42805519 56.88223267 48.63395691 C56.87683975 49.91681328 56.87683975 49.91681328 56.87133789 51.22558594 C56.87148392 52.13325211 56.87162994 53.04091827 56.8717804 53.97608948 C56.87108421 56.97366737 56.86330552 59.97118298 56.85546875 62.96875 C56.85360353 65.0481157 56.85218012 67.12748185 56.85118103 69.20684814 C56.84736407 74.67801122 56.83754076 80.14914772 56.82647705 85.62030029 C56.81624531 91.20389446 56.81167963 96.78749291 56.80664062 102.37109375 C56.79591778 113.3255325 56.77885118 124.27995154 56.7578125 135.234375 C53.2996365 135.3212079 49.84173906 135.37470782 46.3828125 135.421875 C45.39796875 135.44701172 44.413125 135.47214844 43.3984375 135.49804688 C41.98691406 135.51254883 41.98691406 135.51254883 40.546875 135.52734375 C39.24290771 135.55090942 39.24290771 135.55090942 37.91259766 135.57495117 C37.20151855 135.46256104 36.49043945 135.3501709 35.7578125 135.234375 C33.33415809 131.59889339 33.44474718 128.87931769 33.4230957 124.67358398 C33.41144379 123.90582642 33.39979187 123.13806885 33.38778687 122.3470459 C33.35178814 119.80820907 33.32993255 117.26946788 33.30859375 114.73046875 C33.28734514 112.9683395 33.26537817 111.20621877 33.24272156 109.44410706 C33.19731159 105.75126919 33.15852035 102.05844087 33.12475586 98.36547852 C33.08118009 93.62488301 33.02445477 88.88456072 32.9632082 84.14416409 C32.91709076 80.5060488 32.87627067 76.8678901 32.83724022 73.22969246 C32.81815469 71.48131963 32.79779217 69.73296026 32.77614784 67.98461723 C32.74706693 65.54501971 32.72471329 63.10545525 32.7043457 60.66577148 C32.68963982 59.5755645 32.68963982 59.5755645 32.67463684 58.46333313 C32.64335196 53.46329607 32.64335196 53.46329607 33.7578125 51.234375 C33.0978125 50.904375 32.4378125 50.574375 31.7578125 50.234375 C31.52563405 48.27744232 31.29721001 46.31990316 31.09765625 44.359375 C30.4446625 40.27628764 28.23997165 37.03179206 26.1328125 33.546875 C24.7578125 31.234375 24.7578125 31.234375 23.7578125 28.234375 C22.1078125 27.904375 20.4578125 27.574375 18.7578125 27.234375 C18.7578125 26.574375 18.7578125 25.914375 18.7578125 25.234375 C18.1596875 25.46125 17.5615625 25.688125 16.9453125 25.921875 C16.2234375 26.025 15.5015625 26.128125 14.7578125 26.234375 C14.35006592 25.75186279 13.94231934 25.26935059 13.5222168 24.7722168 C10.88944817 22.47751504 8.77960762 22.89471262 5.33984375 22.94140625 C4.08623047 22.95107422 2.83261719 22.96074219 1.54101562 22.97070312 C-0.42448242 23.0084082 -0.42448242 23.0084082 -2.4296875 23.046875 C-3.76495913 23.06192533 -5.10024687 23.07561313 -6.43554688 23.08789062 C-9.70483326 23.12329806 -12.97330843 23.1726861 -16.2421875 23.234375 C-16.7371875 24.719375 -16.7371875 24.719375 -17.2421875 26.234375 C-18.57015041 26.58849844 -19.90435357 26.91959054 -21.2421875 27.234375 C-22.2615994 28.21457875 -23.26465106 29.21240508 -24.2421875 30.234375 C-24.9021875 30.234375 -25.5621875 30.234375 -26.2421875 30.234375 C-26.5103125 30.8325 -26.7784375 31.430625 -27.0546875 32.046875 C-28.24136156 34.23285354 -29.33817863 35.64770094 -31.2421875 37.234375 C-31.9021875 37.234375 -32.5621875 37.234375 -33.2421875 37.234375 C-33.5721875 39.214375 -33.9021875 41.194375 -34.2421875 43.234375 C-34.9021875 43.234375 -35.5621875 43.234375 -36.2421875 43.234375 C-36.2215625 44.183125 -36.2009375 45.131875 -36.1796875 46.109375 C-36.2421875 49.234375 -36.2421875 49.234375 -37.2421875 51.234375 C-37.9021875 51.234375 -38.5621875 51.234375 -39.2421875 51.234375 C-39.23996689 52.27198471 -39.23774628 53.30959442 -39.23545837 54.37864685 C-39.21522722 64.13513771 -39.20021549 73.89162433 -39.19037533 83.64813137 C-39.18514643 88.6645997 -39.17804867 93.68105115 -39.16674805 98.69750977 C-39.1559194 103.53447194 -39.14991071 108.37141784 -39.14731026 113.20839119 C-39.14545597 115.05805785 -39.14183528 116.90772357 -39.13645744 118.75738335 C-39.1292473 121.33884514 -39.12819655 123.92023882 -39.12866211 126.50170898 C-39.12506683 127.27422501 -39.12147156 128.04674103 -39.11776733 128.84266663 C-39.12813534 134.12032284 -39.12813534 134.12032284 -40.2421875 135.234375 C-41.80391495 135.32123103 -43.36948094 135.34139719 -44.93359375 135.33203125 C-45.87783203 135.32880859 -46.82207031 135.32558594 -47.79492188 135.32226562 C-48.78814453 135.31388672 -49.78136719 135.30550781 -50.8046875 135.296875 C-51.80177734 135.29236328 -52.79886719 135.28785156 -53.82617188 135.28320312 C-56.29823599 135.27137507 -58.77018268 135.25489349 -61.2421875 135.234375 C-62.50032574 132.71809852 -62.36803172 131.00284258 -62.36917114 128.18591309 C-62.37199097 127.11745651 -62.37481079 126.04899994 -62.37771606 124.94816589 C-62.37569183 123.77095474 -62.3736676 122.59374359 -62.37158203 121.38085938 C-62.37333435 120.14507645 -62.37508667 118.90929352 -62.37689209 117.63606262 C-62.38054666 114.24150556 -62.37967947 110.84700922 -62.376513 107.45245552 C-62.37398614 103.90462282 -62.37632786 100.35679276 -62.37789917 96.80895996 C-62.37971991 90.85033704 -62.37731706 84.89172651 -62.37255859 78.93310547 C-62.36711615 72.03825752 -62.36887888 65.14343913 -62.374385 58.2485919 C-62.37891885 52.3351909 -62.37956534 46.42179881 -62.37694633 40.50839663 C-62.37538506 36.97378842 -62.37518571 33.43919412 -62.37848282 29.90458679 C-62.38190022 25.96567632 -62.37716734 22.02679913 -62.37158203 18.08789062 C-62.37360626 16.91067947 -62.37563049 15.73346832 -62.37771606 14.52058411 C-62.37489624 13.45212753 -62.37207642 12.38367096 -62.36917114 11.28283691 C-62.36879412 10.35073647 -62.36841709 9.41863602 -62.36802864 8.4582901 C-62.2421875 6.234375 -62.2421875 6.234375 -61.2421875 4.234375 C-61.9021875 3.904375 -62.5621875 3.574375 -63.2421875 3.234375 C-60.13809943 3.17630457 -57.0341511 3.14075586 -53.9296875 3.109375 C-53.04861328 3.09261719 -52.16753906 3.07585937 -51.25976562 3.05859375 C-50.41220703 3.05214844 -49.56464844 3.04570312 -48.69140625 3.0390625 C-47.52097778 3.02335205 -47.52097778 3.02335205 -46.3269043 3.00732422 C-44.2421875 3.234375 -44.2421875 3.234375 -41.2421875 5.234375 C-40.97190376 8.95077639 -41.0612545 11.691576 -42.2421875 15.234375 C-41.5821875 15.234375 -40.9221875 15.234375 -40.2421875 15.234375 C-40.2421875 16.224375 -40.2421875 17.214375 -40.2421875 18.234375 C-36.65250251 16.90486204 -34.88277151 14.72539449 -32.546875 11.765625 C-30.69493344 9.5920888 -28.52662539 7.931386 -26.2421875 6.234375 C-25.7471875 6.729375 -25.7471875 6.729375 -25.2421875 7.234375 C-24.2521875 6.904375 -23.2621875 6.574375 -22.2421875 6.234375 C-21.9121875 5.574375 -21.5821875 4.914375 -21.2421875 4.234375 C-20.5821875 4.234375 -19.9221875 4.234375 -19.2421875 4.234375 C-19.2421875 3.904375 -19.2421875 3.574375 -19.2421875 3.234375 C-12.8097384 1.51139756 -6.63654771 0.47975044 0 0 Z M-30.2421875 29.234375 C-29.9121875 29.894375 -29.5821875 30.554375 -29.2421875 31.234375 C-28.9121875 30.574375 -28.5821875 29.914375 -28.2421875 29.234375 C-28.9021875 29.234375 -29.5621875 29.234375 -30.2421875 29.234375 Z M-33.2421875 32.234375 C-32.2421875 34.234375 -32.2421875 34.234375 -32.2421875 34.234375 Z M-36.2421875 39.234375 C-35.2421875 41.234375 -35.2421875 41.234375 -35.2421875 41.234375 Z " fill="#E0F672" transform="translate(709.2421875,215.765625)"/>
<path d="M0 0 C0.79341797 0.00064453 1.58683594 0.00128906 2.40429688 0.00195312 C3.22865234 0.01806641 4.05300781 0.03417969 4.90234375 0.05078125 C5.73056641 0.04755859 6.55878906 0.04433594 7.41210938 0.04101562 C13.57271783 0.09615533 13.57271783 0.09615533 15.83984375 2.36328125 C16.0848587 4.79504522 16.21309296 7.12193009 16.25390625 9.55859375 C16.2732724 10.26603729 16.29263855 10.97348083 16.31259155 11.70236206 C16.37242027 13.9642121 16.41878476 16.22611295 16.46484375 18.48828125 C16.50302061 20.02085565 16.54207217 21.55340853 16.58203125 23.0859375 C16.67812414 26.84487749 16.76214224 30.60391793 16.83984375 34.36328125 C17.67233643 34.35804443 18.5048291 34.35280762 19.36254883 34.34741211 C22.4543431 34.330359 25.54611339 34.3178256 28.63793945 34.30834961 C30.63299143 34.30085396 32.62802161 34.2881478 34.62304688 34.27539062 C35.87666016 34.27216797 37.13027344 34.26894531 38.421875 34.265625 C39.57921143 34.26038818 40.73654785 34.25515137 41.92895508 34.24975586 C44.83984375 34.36328125 44.83984375 34.36328125 47.83984375 35.36328125 C49.04606895 38.98195684 48.94801293 42.28834376 48.90234375 46.05078125 C48.89783203 46.75267578 48.89332031 47.45457031 48.88867188 48.17773438 C48.87691302 49.90628663 48.85897829 51.6347949 48.83984375 53.36328125 C45.42232722 54.50245343 42.80496438 54.47666606 39.203125 54.4609375 C37.2550293 54.45610352 37.2550293 54.45610352 35.26757812 54.45117188 C33.89583267 54.44281656 32.52408788 54.43435162 31.15234375 54.42578125 C29.7688818 54.4207646 28.38541812 54.41620198 27.00195312 54.41210938 C23.6145398 54.40030654 20.22721342 54.38384144 16.83984375 54.36328125 C16.7935168 64.59449977 16.75797269 74.82569337 16.73621941 85.05699539 C16.72577928 89.80772861 16.71161585 94.5583901 16.68896484 99.30908203 C16.6672447 103.89319311 16.65527685 108.47723517 16.65008926 113.06139374 C16.64639202 114.81090125 16.63917231 116.56040496 16.62838364 118.30988312 C16.61387972 120.75908085 16.61186534 123.20799284 16.61279297 125.65722656 C16.60560242 126.3815538 16.59841187 127.10588104 16.59100342 127.85215759 C16.60632329 131.58675518 16.94604157 134.14174105 18.83984375 137.36328125 C18.96484375 140.11328125 18.96484375 140.11328125 18.83984375 142.36328125 C21.90256852 143.38418951 24.06898381 143.50204706 27.27734375 143.5390625 C28.33695313 143.56291016 29.3965625 143.58675781 30.48828125 143.61132812 C32.72246168 143.65429313 34.9568981 143.68554571 37.19140625 143.70507812 C38.25101563 143.73279297 39.310625 143.76050781 40.40234375 143.7890625 C41.37300781 143.80364502 42.34367188 143.81822754 43.34375 143.83325195 C45.83984375 144.36328125 45.83984375 144.36328125 47.65917969 146.17626953 C49.42040045 149.4386797 49.16164754 152.25301726 49.08984375 155.92578125 C49.0846875 156.59802734 49.07953125 157.27027344 49.07421875 157.96289062 C49.02569658 161.01675485 48.81159831 163.44801757 47.83984375 166.36328125 C43.25656353 166.42130876 38.67337771 166.45688718 34.08984375 166.48828125 C32.78789063 166.50503906 31.4859375 166.52179688 30.14453125 166.5390625 C28.89414062 166.54550781 27.64375 166.55195313 26.35546875 166.55859375 C25.20336914 166.56906738 24.05126953 166.57954102 22.86425781 166.59033203 C19.87729942 166.36609315 18.40061491 165.79519175 15.83984375 164.36328125 C14.07640625 164.14671875 14.07640625 164.14671875 12.27734375 163.92578125 C5.91787814 162.39855499 0.40268058 156.67608188 -3.16015625 151.36328125 C-8.40095939 141.66782433 -7.6754762 131.3646182 -7.55078125 120.6953125 C-7.54330772 118.80531924 -7.53762005 116.91531816 -7.53363037 115.02531433 C-7.51846149 110.0850532 -7.47925649 105.14527312 -7.43481445 100.2052002 C-7.39367162 95.15053817 -7.375579 90.09579734 -7.35546875 85.04101562 C-7.3127526 75.1482278 -7.24460903 65.25579475 -7.16015625 55.36328125 C-7.77536133 55.3789917 -8.39056641 55.39470215 -9.02441406 55.41088867 C-11.81956746 55.47336051 -14.6145738 55.51230993 -17.41015625 55.55078125 C-18.86228516 55.58848633 -18.86228516 55.58848633 -20.34375 55.62695312 C-21.27832031 55.63662109 -22.21289062 55.64628906 -23.17578125 55.65625 C-24.03461914 55.67196045 -24.89345703 55.6876709 -25.77832031 55.70385742 C-28.72315744 55.28277831 -30.06454161 54.45800096 -32.16015625 52.36328125 C-32.48432468 49.52903797 -32.58471612 47.11721921 -32.47265625 44.30078125 C-32.46298828 43.56794922 -32.45332031 42.83511719 -32.44335938 42.08007812 C-32.32978413 36.702537 -32.32978413 36.702537 -31.16015625 34.36328125 C-29.91878906 34.34910156 -28.67742188 34.33492187 -27.3984375 34.3203125 C-25.75647382 34.27339925 -24.11454788 34.22515193 -22.47265625 34.17578125 C-21.65603516 34.16998047 -20.83941406 34.16417969 -19.99804688 34.15820312 C-16.02409775 34.01340336 -13.6050887 33.62087372 -10.1171875 31.6015625 C-7.05798625 26.5395309 -7.49568397 21.54070682 -7.53515625 15.73828125 C-7.53515625 13.47522296 -7.52271612 11.21212045 -7.49609375 8.94921875 C-7.5017334 7.94938965 -7.50737305 6.94956055 -7.51318359 5.91943359 C-7.16015625 3.36328125 -7.16015625 3.36328125 -5.89916992 1.53686523 C-3.76715729 0.0980635 -2.55857284 -0.0105104 0 0 Z M-28.16015625 53.36328125 C-28.16015625 53.69328125 -28.16015625 54.02328125 -28.16015625 54.36328125 C-21.56015625 54.36328125 -14.96015625 54.36328125 -8.16015625 54.36328125 C-8.16015625 54.03328125 -8.16015625 53.70328125 -8.16015625 53.36328125 C-14.76015625 53.36328125 -21.36015625 53.36328125 -28.16015625 53.36328125 Z " fill="#DFF571" transform="translate(962.16015625,184.63671875)"/>
<path d="M0 0 C3.4374823 -0.02901394 6.87493312 -0.04680335 10.3125 -0.0625 C11.28896484 -0.07087891 12.26542969 -0.07925781 13.27148438 -0.08789062 C14.20927734 -0.09111328 15.14707031 -0.09433594 16.11328125 -0.09765625 C16.97735596 -0.10289307 17.84143066 -0.10812988 18.73168945 -0.11352539 C21 0 21 0 24 1 C24.02332869 17.93262204 24.04097903 34.86523908 24.05181217 51.7978735 C24.05697519 59.65944391 24.06401801 67.52100435 24.07543945 75.38256836 C24.0853861 82.23225475 24.09185338 89.08193392 24.09408849 95.93162733 C24.09539563 99.56069396 24.09848169 103.18973994 24.10573006 106.81879997 C24.11374356 110.86350304 24.11399115 114.90816989 24.11352539 118.95288086 C24.11712067 120.16488159 24.12071594 121.37688232 24.12442017 122.62561035 C24.1230455 123.72082504 24.12167084 124.81603973 24.12025452 125.94444275 C24.12117631 126.90218566 24.1220981 127.85992857 24.12304783 128.84669399 C24 131 24 131 23 132 C21.43827255 132.08685603 19.87270656 132.10702219 18.30859375 132.09765625 C17.36435547 132.09443359 16.42011719 132.09121094 15.44726562 132.08789062 C14.45404297 132.07951172 13.46082031 132.07113281 12.4375 132.0625 C11.44041016 132.05798828 10.44332031 132.05347656 9.41601562 132.04882812 C6.94395151 132.03700007 4.47200482 132.02051849 2 132 C0.09027569 128.76940711 -0.24782534 126.3909213 -0.24050903 122.65960693 C-0.24325836 121.57709656 -0.24600769 120.49458618 -0.24884033 119.37927246 C-0.2380545 117.60550232 -0.2380545 117.60550232 -0.22705078 115.79589844 C-0.22734283 114.5468573 -0.22763489 113.29781616 -0.22793579 112.01092529 C-0.22678146 108.58968889 -0.21675323 105.16869406 -0.20278788 101.74750042 C-0.19028265 98.17072448 -0.18911018 94.5939453 -0.18673706 91.01715088 C-0.18052168 84.24572013 -0.16411008 77.47435398 -0.14403808 70.70295167 C-0.12168089 62.99322026 -0.1106861 55.28348575 -0.10064721 47.57372999 C-0.0797439 31.71578258 -0.0445668 15.85789962 0 0 Z " fill="#E4FB74" transform="translate(902,219)"/>
<path d="M0 0 C1.52173828 -0.00193359 1.52173828 -0.00193359 3.07421875 -0.00390625 C4.13253906 -0.00003906 5.19085937 0.00382813 6.28125 0.0078125 C7.86873047 0.00201172 7.86873047 0.00201172 9.48828125 -0.00390625 C10.50277344 -0.00261719 11.51726563 -0.00132812 12.5625 0 C13.49126953 0.00112793 14.42003906 0.00225586 15.37695312 0.00341797 C17.78125 0.1328125 17.78125 0.1328125 20.78125 1.1328125 C22.02209307 3.61449864 21.91058103 5.29707449 21.9140625 8.0703125 C21.91535156 9.04742187 21.91664063 10.02453125 21.91796875 11.03125 C21.91410156 12.05476562 21.91023437 13.07828125 21.90625 14.1328125 C21.91205078 15.66808594 21.91205078 15.66808594 21.91796875 17.234375 C21.91667969 18.21148437 21.91539062 19.18859375 21.9140625 20.1953125 C21.91293457 21.09378906 21.91180664 21.99226563 21.91064453 22.91796875 C21.78125 25.1328125 21.78125 25.1328125 20.78125 27.1328125 C11.54125 27.1328125 2.30125 27.1328125 -7.21875 27.1328125 C-8.06816019 23.73517174 -8.33636783 21.3630798 -8.31640625 17.9296875 C-8.31318359 16.95 -8.30996094 15.9703125 -8.30664062 14.9609375 C-8.29826172 13.94515625 -8.28988281 12.929375 -8.28125 11.8828125 C-8.27673828 10.8515625 -8.27222656 9.8203125 -8.26757812 8.7578125 C-8.25581088 6.21608677 -8.23937011 3.67447931 -8.21875 1.1328125 C-5.19982411 0.12650387 -3.15578824 0.0038325 0 0 Z " fill="#E3FA73" transform="translate(907.21875,165.8671875)"/>
<path d="M0 0 C1.26328125 0.04511719 2.5265625 0.09023438 3.828125 0.13671875 C4.79234375 0.19472656 5.7565625 0.25273437 6.75 0.3125 C6.75 0.6425 6.75 0.9725 6.75 1.3125 C7.719375 1.60125 8.68875 1.89 9.6875 2.1875 C12.75 3.3125 12.75 3.3125 13.75 5.3125 C13.87463392 7.95010152 13.93516573 10.5497717 13.9375 13.1875 C13.94974609 13.90808594 13.96199219 14.62867188 13.97460938 15.37109375 C13.98542809 19.28746928 13.65171198 21.91419676 11.75 25.3125 C8.45835171 25.34145225 5.16673601 25.3592823 1.875 25.375 C0.93785156 25.38337891 0.00070313 25.39175781 -0.96484375 25.40039062 C-2.30869141 25.40522461 -2.30869141 25.40522461 -3.6796875 25.41015625 C-4.92081299 25.41801147 -4.92081299 25.41801147 -6.18701172 25.42602539 C-8.25 25.3125 -8.25 25.3125 -10.25 24.3125 C-11.46791109 20.65876672 -11.51104675 17.24504014 -11.5625 13.4375 C-11.59150391 12.72980469 -11.62050781 12.02210938 -11.65039062 11.29296875 C-11.6929729 7.77501802 -11.32326935 5.45227819 -9.68359375 2.32421875 C-6.35484506 -0.4274756 -4.25928224 -0.19718899 0 0 Z " fill="#E4FB74" transform="translate(230.25,311.6875)"/>
<path d="M0 0 C1.26328125 0.04511719 2.5265625 0.09023438 3.828125 0.13671875 C4.79234375 0.19472656 5.7565625 0.25273437 6.75 0.3125 C6.75 0.6425 6.75 0.9725 6.75 1.3125 C7.69875 1.539375 8.6475 1.76625 9.625 2 C12.75 3.3125 12.75 3.3125 13.9609375 5.44921875 C14.93046764 8.96736525 14.79309601 11.80465207 14.5 15.4375 C14.41234375 16.65695312 14.3246875 17.87640625 14.234375 19.1328125 C13.75 22.3125 13.75 22.3125 11.75 25.3125 C8.6684353 25.96517335 5.5174264 25.77556708 2.375 25.75 C1.51132813 25.76998047 0.64765625 25.78996094 -0.2421875 25.81054688 C-4.03358138 25.80762142 -6.5233493 25.74539829 -9.8203125 23.78125 C-11.8073841 20.35002253 -11.8343341 17.22977108 -11.75 13.375 C-11.76546875 12.67181641 -11.7809375 11.96863281 -11.796875 11.24414062 C-11.77079009 7.76506598 -11.3016417 5.41015906 -9.671875 2.328125 C-6.35300951 -0.43402757 -4.25725562 -0.19709517 0 0 Z " fill="#E3FA74" transform="translate(199.25,311.6875)"/>
<path d="M0 0 C1.07991211 0.01450195 1.07991211 0.01450195 2.18164062 0.02929688 C5.33635846 0.09666782 7.92887281 0.30962427 10.9375 1.3125 C13.45730105 5.09220158 13.496639 8.41356551 13.75 12.8125 C13.81380859 13.58464844 13.87761719 14.35679687 13.94335938 15.15234375 C14.29205877 20.8199368 14.29205877 20.8199368 12.69995117 23.03173828 C10.50933173 24.62364708 9.28434772 24.69897676 6.59375 24.7109375 C5.75972656 24.71480469 4.92570312 24.71867187 4.06640625 24.72265625 C2.76509766 24.70525391 2.76509766 24.70525391 1.4375 24.6875 C0.56996094 24.69910156 -0.29757813 24.71070313 -1.19140625 24.72265625 C-2.02542969 24.71878906 -2.85945312 24.71492188 -3.71875 24.7109375 C-4.86053711 24.70586182 -4.86053711 24.70586182 -6.02539062 24.70068359 C-8.59140875 24.21171322 -9.46821786 23.34495694 -11.0625 21.3125 C-12.11774289 17.66543246 -12.28410403 14.03414261 -12.375 10.25 C-12.41238281 9.22777344 -12.44976562 8.20554688 -12.48828125 7.15234375 C-12.0625 4.3125 -12.0625 4.3125 -10.546875 1.9609375 C-7.096644 -0.32836671 -3.98988582 -0.16160654 0 0 Z " fill="#E3FA73" transform="translate(200.0625,224.6875)"/>
<path d="M0 0 C2.60423592 -0.02697137 5.20819244 -0.04682489 7.8125 -0.0625 C8.55048828 -0.07087891 9.28847656 -0.07925781 10.04882812 -0.08789062 C13.29922068 -0.10259828 15.89404895 -0.03531702 19 1 C21.69726652 4.58736447 21.29633084 8.77303611 21.25 13.0625 C21.25773437 13.78244141 21.26546875 14.50238281 21.2734375 15.24414062 C21.25937918 19.02934363 21.1475969 20.77860465 19 24 C15.91997091 24.67796903 12.77085152 24.50930725 9.625 24.5 C8.76132813 24.52835938 7.89765625 24.55671875 7.0078125 24.5859375 C2.91946872 24.59855585 0.72275857 24.55353262 -2.5859375 22.01953125 C-4.49340225 17.946409 -4.4432185 14.62037826 -4.25 10.1875 C-4.23195312 9.39923828 -4.21390625 8.61097656 -4.1953125 7.79882812 C-4.14844048 5.86535739 -4.0767041 3.93251715 -4 2 C-2.68 2 -1.36 2 0 2 C0 1.34 0 0.68 0 0 Z " fill="#E2F873" transform="translate(223,225)"/>
<path d="M0 0 C1.19882813 0.00483398 1.19882813 0.00483398 2.421875 0.00976562 C3.246875 0.01814453 4.071875 0.02652344 4.921875 0.03515625 C5.76234375 0.03966797 6.6028125 0.04417969 7.46875 0.04882812 C9.53648901 0.06057664 11.60419124 0.07851103 13.671875 0.09765625 C16.05061719 4.30909691 17.06551086 7.32321087 16.984375 12.16015625 C16.98050781 13.16175781 16.97664063 14.16335937 16.97265625 15.1953125 C16.6646774 18.16710841 15.91617271 20.39589429 14.671875 23.09765625 C11.23481795 23.242708 7.79854467 23.33163639 4.359375 23.41015625 C3.38291016 23.45205078 2.40644531 23.49394531 1.40039062 23.53710938 C-5.73484817 23.65970798 -5.73484817 23.65970798 -8.48046875 21.05859375 C-9.53118737 17.38834161 -9.65289858 14.22734759 -9.578125 10.41015625 C-9.57296875 9.73404297 -9.5678125 9.05792969 -9.5625 8.36132812 C-9.48365236 3.40871098 -9.48365236 3.40871098 -8.328125 1.09765625 C-5.52922783 0.13100716 -2.94329992 -0.02102357 0 0 Z " fill="#DCF270" transform="translate(197.328125,195.90234375)"/>
<path d="M0 0 C0.78439453 0.00064453 1.56878906 0.00128906 2.37695312 0.00195312 C3.19228516 0.01806641 4.00761719 0.03417969 4.84765625 0.05078125 C5.65912109 0.04755859 6.47058594 0.04433594 7.30664062 0.04101562 C14.56862897 0.10654628 14.56862897 0.10654628 17.91015625 2.36328125 C18.43793416 5.0962002 18.69698804 7.425423 18.78515625 10.17578125 C18.8315625 10.88798828 18.87796875 11.60019531 18.92578125 12.33398438 C19.14233475 16.83579846 18.64330386 19.03041224 16.91015625 23.36328125 C9.98015625 23.36328125 3.05015625 23.36328125 -4.08984375 23.36328125 C-6.85589793 17.83117288 -7.50223181 15.98962456 -7.46484375 10.17578125 C-7.47257813 8.96535156 -7.4803125 7.75492187 -7.48828125 6.5078125 C-7.08984375 3.36328125 -7.08984375 3.36328125 -5.82055664 1.68945312 C-3.70654571 0.06957622 -2.63865488 -0.01103291 0 0 Z " fill="#E4FB74" transform="translate(195.08984375,254.63671875)"/>
<path d="M0 0 C1.22976562 -0.05607422 1.22976562 -0.05607422 2.484375 -0.11328125 C4.75459155 -0.14666679 6.77852503 -0.09507124 9 0.375 C11.79737865 3.18309657 11.97170367 5.11478477 12.3984375 9.0390625 C12.39070313 10.34617188 12.38296875 11.65328125 12.375 13 C12.38273437 14.31226563 12.39046875 15.62453125 12.3984375 16.9765625 C12 20.375 12 20.375 10.7668457 22.0690918 C8.47890397 23.76015167 7.15699373 23.72194892 4.33203125 23.66796875 C3.43935547 23.65830078 2.54667969 23.64863281 1.62695312 23.63867188 C0.23379883 23.6009668 0.23379883 23.6009668 -1.1875 23.5625 C-2.12787109 23.54896484 -3.06824219 23.53542969 -4.03710938 23.52148438 C-6.35865038 23.48613096 -8.67903653 23.43678674 -11 23.375 C-13.2560455 19.34351319 -13.2644501 15.77790611 -13.1875 11.25 C-13.18685547 10.52167969 -13.18621094 9.79335937 -13.18554688 9.04296875 C-13.14074248 3.65648496 -13.14074248 3.65648496 -12 1.375 C-7.97113745 0.03204582 -4.22053955 0.07299675 0 0 Z " fill="#DBF16F" transform="translate(232,195.625)"/>
<path d="M0 0 C0.89267578 0.00966797 1.78535156 0.01933594 2.70507812 0.02929688 C4.09823242 0.06700195 4.09823242 0.06700195 5.51953125 0.10546875 C6.45990234 0.11900391 7.40027344 0.13253906 8.36914062 0.14648438 C10.69068163 0.18183779 13.01106778 0.23118201 15.33203125 0.29296875 C15.33203125 1.61296875 15.33203125 2.93296875 15.33203125 4.29296875 C15.99203125 4.29296875 16.65203125 4.29296875 17.33203125 4.29296875 C17.41321076 6.71031417 17.47260051 9.12491824 17.51953125 11.54296875 C17.54466797 12.22488281 17.56980469 12.90679687 17.59570312 13.609375 C17.63836508 16.53882926 17.44531295 18.99072353 16.4140625 21.7421875 C12.90290607 24.3574391 9.08372091 23.90916765 4.83203125 23.85546875 C3.96449219 23.87931641 3.09695312 23.90316406 2.203125 23.92773438 C-4.04415576 23.91325073 -4.04415576 23.91325073 -6.73828125 21.234375 C-7.88957822 17.59182619 -8.06557485 14.48839962 -8.04296875 10.66796875 C-8.05070313 9.35570312 -8.0584375 8.0434375 -8.06640625 6.69140625 C-7.66796875 3.29296875 -7.66796875 3.29296875 -6.43481445 1.59887695 C-4.14687272 -0.09218292 -2.82496248 -0.05398017 0 0 Z " fill="#E1F873" transform="translate(226.66796875,254.70703125)"/>
<path d="M0 0 C3.27075883 -0.0580476 6.54138524 -0.09361165 9.8125 -0.125 C10.74126953 -0.14175781 11.67003906 -0.15851563 12.62695312 -0.17578125 C13.51962891 -0.18222656 14.41230469 -0.18867188 15.33203125 -0.1953125 C16.15421143 -0.20578613 16.9763916 -0.21625977 17.82348633 -0.22705078 C20 0 20 0 23 2 C23.51171875 4.13671875 23.51171875 4.13671875 23.6875 6.6875 C23.75066406 7.57953125 23.81382812 8.4715625 23.87890625 9.390625 C24.28515112 18.14454665 24.28515112 18.14454665 23 22 C19.39610336 22.11601004 15.79268533 22.18718408 12.1875 22.25 C11.16333984 22.28351563 10.13917969 22.31703125 9.08398438 22.3515625 C8.10107422 22.36445313 7.11816406 22.37734375 6.10546875 22.390625 C4.74651489 22.4220459 4.74651489 22.4220459 3.36010742 22.45410156 C1 22 1 22 -0.80078125 20.21875 C-2.62413366 16.84525108 -2.31593031 13.47777212 -2.1875 9.75 C-2.17396484 9.00492187 -2.16042969 8.25984375 -2.14648438 7.4921875 C-2.11127204 5.66114584 -2.05746851 3.83047831 -2 2 C-1.34 1.67 -0.68 1.34 0 1 C0 0.67 0 0.34 0 0 Z " fill="#E3F973" transform="translate(190,343)"/>
<path d="M0 0 C2.89608593 -0.05413245 5.79115195 -0.09373641 8.6875 -0.125 C9.91243164 -0.15013672 9.91243164 -0.15013672 11.16210938 -0.17578125 C15.57092929 -0.2114802 18.98731576 -0.07580814 23 2 C23.02887814 5.47914941 23.04675687 8.95826831 23.0625 12.4375 C23.07087891 13.43072266 23.07925781 14.42394531 23.08789062 15.44726562 C23.09272461 16.86362305 23.09272461 16.86362305 23.09765625 18.30859375 C23.10551147 19.62041626 23.10551147 19.62041626 23.11352539 20.95874023 C23 23 23 23 22 24 C18.69561091 24.2776444 15.37717866 24.23174988 12.0625 24.25 C11.12986328 24.270625 10.19722656 24.29125 9.23632812 24.3125 C8.34494141 24.31765625 7.45355469 24.3228125 6.53515625 24.328125 C5.30357788 24.34214355 5.30357788 24.34214355 4.04711914 24.35644531 C3.03379517 24.18000488 3.03379517 24.18000488 2 24 C-0.16926659 20.74610012 -0.24080049 19.86604043 -0.1953125 16.11328125 C-0.18886719 15.17548828 -0.18242187 14.23769531 -0.17578125 13.27148438 C-0.15902344 12.29501953 -0.14226562 11.31855469 -0.125 10.3125 C-0.11597656 9.32443359 -0.10695312 8.33636719 -0.09765625 7.31835938 C-0.0740843 4.87866235 -0.04118022 2.43945303 0 0 Z " fill="#E2F973" transform="translate(129,225)"/>
<path d="M0 0 C3.10414702 -0.02903577 6.20825909 -0.0468107 9.3125 -0.0625 C10.19357422 -0.07087891 11.07464844 -0.07925781 11.98242188 -0.08789062 C12.82998047 -0.09111328 13.67753906 -0.09433594 14.55078125 -0.09765625 C15.72120972 -0.10551147 15.72120972 -0.10551147 16.9152832 -0.11352539 C19 0 19 0 22 1 C24.19978897 5.6692295 24.10970262 9.86049076 23.625 14.875 C23.315625 18.401875 23.315625 18.401875 23 22 C15.41 22 7.82 22 0 22 C-2.18648367 17.62703266 -2.23362071 14.4791784 -2.125 9.75 C-2.11597656 9.00492187 -2.10695312 8.25984375 -2.09765625 7.4921875 C-2.07418358 5.66131941 -2.03831525 3.83061762 -2 2 C-1.34 1.67 -0.68 1.34 0 1 C0 0.67 0 0.34 0 0 Z " fill="#E5FC75" transform="translate(190,284)"/>
<path d="M0 0 C1.07894531 0.00483398 1.07894531 0.00483398 2.1796875 0.00976562 C2.88351563 -0.00634766 3.58734375 -0.02246094 4.3125 -0.0390625 C9.08435634 -0.04349731 12.23789475 0.82432623 16.4296875 3.32226562 C16.51656246 6.44709125 16.57003318 9.57160808 16.6171875 12.69726562 C16.64232422 13.58671875 16.66746094 14.47617188 16.69335938 15.39257812 C16.70302734 16.24335938 16.71269531 17.09414062 16.72265625 17.97070312 C16.7383667 18.75622559 16.75407715 19.54174805 16.77026367 20.35107422 C16.65787354 21.00156738 16.5454834 21.65206055 16.4296875 22.32226562 C13.29685758 24.41081891 12.579124 24.57165364 9.015625 24.55273438 C8.17257813 24.55080078 7.32953125 24.54886719 6.4609375 24.546875 C5.584375 24.53462891 4.7078125 24.52238281 3.8046875 24.50976562 C2.92039063 24.50912109 2.03609375 24.50847656 1.125 24.5078125 C-5.43000724 24.46257089 -5.43000724 24.46257089 -6.5703125 23.32226562 C-6.97897526 19.8581017 -7.08674143 16.36777256 -7.2578125 12.88476562 C-7.31775391 11.90443359 -7.37769531 10.92410156 -7.43945312 9.9140625 C-7.48650391 8.97755859 -7.53355469 8.04105469 -7.58203125 7.07617188 C-7.62803467 6.2132251 -7.67403809 5.35027832 -7.72143555 4.46118164 C-7.38249709 -0.33597479 -4.00431915 0.04124299 0 0 Z " fill="#E3F973" transform="translate(166.5703125,224.677734375)"/>
<path d="M0 0 C0.72380859 0.00773438 1.44761719 0.01546875 2.19335938 0.0234375 C2.90556641 0.01570312 3.61777344 0.00796875 4.3515625 0 C8.75102578 0.01627924 11.16724731 0.58799267 15.38085938 2.2734375 C15.38085938 9.5334375 15.38085938 16.7934375 15.38085938 24.2734375 C12.32835937 24.3559375 9.27585937 24.4384375 6.13085938 24.5234375 C5.1753418 24.55985352 4.21982422 24.59626953 3.23535156 24.63378906 C-0.45999334 24.68226798 -2.93824847 24.65399656 -6.20507812 22.828125 C-8.33787861 18.97494402 -8.12405976 15.47679593 -7.99414062 11.1484375 C-7.99285156 10.32472656 -7.9915625 9.50101563 -7.99023438 8.65234375 C-7.89304237 2.05408654 -7.27419035 0.02706675 0 0 Z " fill="#E2F973" transform="translate(257.619140625,224.7265625)"/>
<path d="M0 0 C2.89684158 -0.10829314 5.78961019 -0.18743954 8.6875 -0.25 C9.50412109 -0.28351563 10.32074219 -0.31703125 11.16210938 -0.3515625 C15.05819137 -0.41465695 17.5157435 -0.23718686 21.0625 1.5 C23.7581255 4.97822645 23.55374513 8.0486233 23.3125 12.25 C23.28994141 12.99507813 23.26738281 13.74015625 23.24414062 14.5078125 C23.18543561 16.339409 23.09575757 18.16996653 23 20 C22.34 20 21.68 20 21 20 C21 20.66 21 21.32 21 22 C13.74 22 6.48 22 -1 22 C-2.04682656 17.81269376 -2.11155353 14.02143069 -2.0625 9.75 C-2.05798828 9.00492187 -2.05347656 8.25984375 -2.04882812 7.4921875 C-2.03709246 5.6614236 -2.0191585 3.83070127 -2 2 C-1.34 1.67 -0.68 1.34 0 1 C0 0.67 0 0.34 0 0 Z " fill="#E4FB74" transform="translate(221,284)"/>
<path d="M0 0 C3.06345144 -0.10822792 6.1230601 -0.18741479 9.1875 -0.25 C10.05181641 -0.28351563 10.91613281 -0.31703125 11.80664062 -0.3515625 C15.84406679 -0.41343876 18.42704196 -0.28647902 22.0859375 1.54296875 C24.74979024 4.96248584 24.5674353 7.27463515 24.4375 11.5625 C24.43169922 12.23474609 24.42589844 12.90699219 24.41992188 13.59960938 C24.32954237 17.24009599 24.06369293 18.90446061 22 22 C19.87695312 22.38818359 19.87695312 22.38818359 17.28125 22.3984375 C16.34925781 22.40230469 15.41726562 22.40617187 14.45703125 22.41015625 C12.99330078 22.39275391 12.99330078 22.39275391 11.5 22.375 C10.52417969 22.38660156 9.54835937 22.39820313 8.54296875 22.41015625 C7.61097656 22.40628906 6.67898437 22.40242188 5.71875 22.3984375 C4.43387695 22.39336182 4.43387695 22.39336182 3.12304688 22.38818359 C2.42244141 22.26008301 1.72183594 22.13198242 1 22 C-1.57944193 18.1308371 -1.25808937 14.9143521 -1.1875 10.4375 C-1.18685547 9.65697266 -1.18621094 8.87644531 -1.18554688 8.07226562 C-1.14057707 2.28115414 -1.14057707 2.28115414 0 0 Z M19 18 C19 18.66 19 19.32 19 20 C19.66 19.67 20.32 19.34 21 19 C20.34 18.67 19.68 18.34 19 18 Z " fill="#E0F672" transform="translate(220,343)"/>
<path d="M0 0 C2.65833512 0.1124093 5.31580716 0.23181353 7.97314453 0.3659668 C8.89740234 0.40141602 9.82166016 0.43686523 10.77392578 0.47338867 C11.66208984 0.51657227 12.55025391 0.55975586 13.46533203 0.60424805 C14.68905518 0.66092651 14.68905518 0.66092651 15.9375 0.71875 C18.09814453 1.0534668 18.09814453 1.0534668 21.09814453 3.0534668 C21.47045898 4.99291992 21.47045898 4.99291992 21.46142578 7.3347168 C21.46078125 8.17647461 21.46013672 9.01823242 21.45947266 9.88549805 C21.44335938 10.76592773 21.42724609 11.64635742 21.41064453 12.5534668 C21.41547852 13.87411133 21.41547852 13.87411133 21.42041016 15.22143555 C21.36511485 21.78649648 21.36511485 21.78649648 19.09814453 24.0534668 C17.15869141 24.31225586 17.15869141 24.31225586 14.81689453 24.3190918 C13.97513672 24.32166992 13.13337891 24.32424805 12.26611328 24.3269043 C11.38568359 24.31916992 10.50525391 24.31143555 9.59814453 24.3034668 C8.2775 24.31506836 8.2775 24.31506836 6.93017578 24.3269043 C6.08841797 24.32432617 5.24666016 24.32174805 4.37939453 24.3190918 C3.60660156 24.31683594 2.83380859 24.31458008 2.03759766 24.31225586 C0.09814453 24.0534668 0.09814453 24.0534668 -1.90185547 22.0534668 C-2.22070312 20.22167969 -2.22070312 20.22167969 -2.31591797 18.02612305 C-2.37392578 16.83792969 -2.37392578 16.83792969 -2.43310547 15.62573242 C-2.46404297 14.79750977 -2.49498047 13.96928711 -2.52685547 13.1159668 C-2.56552734 12.29161133 -2.60419922 11.46725586 -2.64404297 10.61791992 C-2.78926431 7.42564367 -2.90185547 4.24946607 -2.90185547 1.0534668 C-1.90185547 0.0534668 -1.90185547 0.0534668 0 0 Z " fill="#E3FA74" transform="translate(161.90185546875,312.946533203125)"/>
<path d="M0 0 C0.85078125 0.00322266 1.7015625 0.00644531 2.578125 0.00976562 C3.46757812 0.01814453 4.35703125 0.02652344 5.2734375 0.03515625 C6.170625 0.03966797 7.0678125 0.04417969 7.9921875 0.04882812 C10.21100398 0.06063034 12.42968768 0.0770947 14.6484375 0.09765625 C14.6484375 0.75765625 14.6484375 1.41765625 14.6484375 2.09765625 C15.3084375 2.09765625 15.9684375 2.09765625 16.6484375 2.09765625 C16.70635594 5.22257876 16.74200496 8.34736391 16.7734375 11.47265625 C16.79019531 12.36210937 16.80695313 13.2515625 16.82421875 14.16796875 C16.83066406 15.01875 16.83710938 15.86953125 16.84375 16.74609375 C16.85422363 17.53161621 16.86469727 18.31713867 16.87548828 19.12646484 C16.6484375 21.09765625 16.6484375 21.09765625 14.6484375 23.09765625 C12.70898438 23.35644531 12.70898438 23.35644531 10.3671875 23.36328125 C9.52542969 23.36585938 8.68367188 23.3684375 7.81640625 23.37109375 C6.93597656 23.36335938 6.05554688 23.355625 5.1484375 23.34765625 C3.82779297 23.35925781 3.82779297 23.35925781 2.48046875 23.37109375 C1.63871094 23.36851562 0.79695312 23.3659375 -0.0703125 23.36328125 C-0.84310547 23.36102539 -1.61589844 23.35876953 -2.41210938 23.35644531 C-4.3515625 23.09765625 -4.3515625 23.09765625 -6.3515625 21.09765625 C-6.6328381 18.40668968 -6.81738119 15.79530064 -6.9140625 13.09765625 C-6.91958223 7.94020828 -6.91958223 7.94020828 -8.3515625 3.09765625 C-7.6915625 3.09765625 -7.0315625 3.09765625 -6.3515625 3.09765625 C-6.3515625 2.43765625 -6.3515625 1.77765625 -6.3515625 1.09765625 C-4.00303722 -0.07660639 -2.61382185 -0.01742548 0 0 Z " fill="#DCF270" transform="translate(166.3515625,254.90234375)"/>
<path d="M0 0 C1.2365332 -0.01836914 1.2365332 -0.01836914 2.49804688 -0.03710938 C3.68817383 -0.04000977 3.68817383 -0.04000977 4.90234375 -0.04296875 C5.62800537 -0.04707764 6.35366699 -0.05118652 7.10131836 -0.05541992 C9.0625 0.1875 9.0625 0.1875 12.0625 2.1875 C12.41894531 4.23461914 12.41894531 4.23461914 12.390625 6.72265625 C12.38546875 7.61404297 12.3803125 8.50542969 12.375 9.42382812 C12.354375 10.35646484 12.33375 11.28910156 12.3125 12.25 C12.30734375 13.18650391 12.3021875 14.12300781 12.296875 15.08789062 C12.21640339 22.03359661 12.21640339 22.03359661 11.0625 23.1875 C9.50077255 23.27435603 7.93520656 23.29452219 6.37109375 23.28515625 C5.42685547 23.28193359 4.48261719 23.27871094 3.50976562 23.27539062 C2.01993164 23.26282227 2.01993164 23.26282227 0.5 23.25 C-0.49708984 23.24548828 -1.49417969 23.24097656 -2.52148438 23.23632812 C-4.99354849 23.22450007 -7.46549518 23.20801849 -9.9375 23.1875 C-10.87887255 20.36338235 -11.05475382 18.65831968 -11.03515625 15.73828125 C-11.03193359 14.89072266 -11.02871094 14.04316406 -11.02539062 13.16992188 C-11.01701172 12.28884766 -11.00863281 11.40777344 -11 10.5 C-10.99548828 9.60732422 -10.99097656 8.71464844 -10.98632812 7.79492188 C-10.97454983 5.59238013 -10.95810164 3.38997401 -10.9375 1.1875 C-7.53373106 -0.51438447 -3.75074101 0.00291886 0 0 Z " fill="#DCF270" transform="translate(139.9375,254.8125)"/>
<path d="M0 0 C3.27075883 -0.0580476 6.54138524 -0.09361165 9.8125 -0.125 C10.74126953 -0.14175781 11.67003906 -0.15851563 12.62695312 -0.17578125 C13.51962891 -0.18222656 14.41230469 -0.18867188 15.33203125 -0.1953125 C16.15421143 -0.20578613 16.9763916 -0.21625977 17.82348633 -0.22705078 C20 0 20 0 23 2 C23.35644531 4.04711914 23.35644531 4.04711914 23.328125 6.53515625 C23.32296875 7.42654297 23.3178125 8.31792969 23.3125 9.23632812 C23.291875 10.16896484 23.27125 11.10160156 23.25 12.0625 C23.24484375 12.99900391 23.2396875 13.93550781 23.234375 14.90039062 C23.15390339 21.84609661 23.15390339 21.84609661 22 23 C20.60825641 23.09862603 19.21163857 23.1307898 17.81640625 23.1328125 C16.97142578 23.13410156 16.12644531 23.13539063 15.25585938 23.13671875 C14.36705078 23.13285156 13.47824219 23.12898438 12.5625 23.125 C11.67755859 23.12886719 10.79261719 23.13273437 9.88085938 23.13671875 C9.03458984 23.13542969 8.18832031 23.13414062 7.31640625 23.1328125 C6.14766968 23.13112061 6.14766968 23.13112061 4.95532227 23.12939453 C3 23 3 23 1 22 C0.05862745 19.17588235 -0.11725382 17.47081968 -0.09765625 14.55078125 C-0.09443359 13.70322266 -0.09121094 12.85566406 -0.08789062 11.98242188 C-0.07951172 11.10134766 -0.07113281 10.22027344 -0.0625 9.3125 C-0.05798828 8.41982422 -0.05347656 7.52714844 -0.04882812 6.60742188 C-0.03704983 4.40488013 -0.02060164 2.20247401 0 0 Z " fill="#E3FA74" transform="translate(250,314)"/>
<path d="M0 0 C3.27184808 0.08084703 6.54182779 0.19368874 9.8125 0.3125 C10.74126953 0.33505859 11.67003906 0.35761719 12.62695312 0.38085938 C13.51962891 0.41630859 14.41230469 0.45175781 15.33203125 0.48828125 C16.56530151 0.52755737 16.56530151 0.52755737 17.82348633 0.56762695 C20.51761215 1.1028257 21.42668889 1.76028641 23 4 C23.34057617 6.0847168 23.34057617 6.0847168 23.29296875 8.44921875 C23.28330078 9.29677734 23.27363281 10.14433594 23.26367188 11.01757812 C23.23853516 11.89865234 23.21339844 12.77972656 23.1875 13.6875 C23.16719727 15.02651367 23.16719727 15.02651367 23.14648438 16.39257812 C23.11114079 18.59566166 23.06180493 20.79752582 23 23 C20.72926921 24.1353654 19.45716721 24.12892412 16.9375 24.1328125 C16.14085937 24.13410156 15.34421875 24.13539063 14.5234375 24.13671875 C13.69070312 24.13285156 12.85796875 24.12898438 12 24.125 C10.75089844 24.13080078 10.75089844 24.13080078 9.4765625 24.13671875 C8.67992187 24.13542969 7.88328125 24.13414062 7.0625 24.1328125 C6.33160156 24.13168457 5.60070312 24.13055664 4.84765625 24.12939453 C3 24 3 24 1 23 C0.03911617 20.11734851 -0.11670941 18.32337729 -0.09765625 15.33203125 C-0.09443359 14.43935547 -0.09121094 13.54667969 -0.08789062 12.62695312 C-0.07951172 11.69818359 -0.07113281 10.76941406 -0.0625 9.8125 C-0.05798828 8.87212891 -0.05347656 7.93175781 -0.04882812 6.96289062 C-0.03704626 4.64186288 -0.02059558 2.32096356 0 0 Z " fill="#E3F973" transform="translate(129,313)"/>
<path d="M0 0 C0.78890625 -0.00386719 1.5778125 -0.00773438 2.390625 -0.01171875 C3.21046875 -0.00011719 4.0303125 0.01148438 4.875 0.0234375 C6.10476562 0.00603516 6.10476562 0.00603516 7.359375 -0.01171875 C8.54273438 -0.00591797 8.54273438 -0.00591797 9.75 0 C10.46929687 0.00338379 11.18859375 0.00676758 11.9296875 0.01025391 C14.47698879 0.51856328 15.35331834 1.31108148 16.875 3.3984375 C17.24731445 5.35961914 17.24731445 5.35961914 17.23828125 7.55859375 C17.23763672 8.35201172 17.23699219 9.14542969 17.23632812 9.96289062 C17.22021484 10.78724609 17.20410156 11.61160156 17.1875 12.4609375 C17.19233398 13.70327148 17.19233398 13.70327148 17.19726562 14.97070312 C17.14212592 21.13131158 17.14212592 21.13131158 14.875 23.3984375 C12.72021484 23.62548828 12.72021484 23.62548828 10.0859375 23.59375 C9.14492187 23.58730469 8.20390625 23.58085937 7.234375 23.57421875 C6.24953125 23.55746094 5.2646875 23.54070312 4.25 23.5234375 C3.25742188 23.51441406 2.26484375 23.50539062 1.2421875 23.49609375 C-1.21378134 23.47247866 -3.66927168 23.43954549 -6.125 23.3984375 C-6.37985425 20.12907256 -6.59942831 16.85827009 -6.8125 13.5859375 C-6.92174805 12.1927832 -6.92174805 12.1927832 -7.03320312 10.77148438 C-7.08798828 9.87880859 -7.14277344 8.98613281 -7.19921875 8.06640625 C-7.25682373 7.24422607 -7.31442871 6.4220459 -7.3737793 5.57495117 C-7.125 3.3984375 -7.125 3.3984375 -5.87817383 1.6315918 C-3.75000142 0.13466952 -2.58513418 0.01216125 0 0 Z " fill="#DBF170" transform="translate(166.125,195.6015625)"/>
<path d="M0 0 C0.84175781 -0.00257813 1.68351562 -0.00515625 2.55078125 -0.0078125 C3.87142578 0.00378906 3.87142578 0.00378906 5.21875 0.015625 C6.09917969 0.00789062 6.97960937 0.00015625 7.88671875 -0.0078125 C8.72847656 -0.00523437 9.57023437 -0.00265625 10.4375 0 C11.59668945 0.00338379 11.59668945 0.00338379 12.77929688 0.00683594 C14.71875 0.265625 14.71875 0.265625 16.71875 2.265625 C16.96166992 4.31274414 16.96166992 4.31274414 16.94921875 6.80078125 C16.94728516 7.69216797 16.94535156 8.58355469 16.94335938 9.50195312 C16.92499023 10.9009082 16.92499023 10.9009082 16.90625 12.328125 C16.90560547 13.26462891 16.90496094 14.20113281 16.90429688 15.16601562 C16.85894224 22.12543276 16.85894224 22.12543276 15.71875 23.265625 C12.41358066 23.51598474 9.09478959 23.45084452 5.78125 23.453125 C4.84861328 23.46537109 3.91597656 23.47761719 2.95507812 23.49023438 C2.06369141 23.49216797 1.17230469 23.49410156 0.25390625 23.49609375 C-0.567146 23.50020264 -1.38819824 23.50431152 -2.23413086 23.50854492 C-4.28125 23.265625 -4.28125 23.265625 -6.28125 21.265625 C-6.54003906 19.32617188 -6.54003906 19.32617188 -6.546875 16.984375 C-6.54945313 16.14261719 -6.55203125 15.30085938 -6.5546875 14.43359375 C-6.54308594 13.11294922 -6.54308594 13.11294922 -6.53125 11.765625 C-6.53898437 10.88519531 -6.54671875 10.00476563 -6.5546875 9.09765625 C-6.55210937 8.25589844 -6.54953125 7.41414063 -6.546875 6.546875 C-6.54461914 5.77408203 -6.54236328 5.00128906 -6.54003906 4.20507812 C-5.99493728 0.11990023 -3.52809625 0.01029886 0 0 Z " fill="#D2E76B" transform="translate(287.28125,254.734375)"/>
<path d="M0 0 C1.19012695 0.0009668 1.19012695 0.0009668 2.40429688 0.00195312 C3.22865234 0.01806641 4.05300781 0.03417969 4.90234375 0.05078125 C5.73056641 0.04755859 6.55878906 0.04433594 7.41210938 0.04101562 C13.57271783 0.09615533 13.57271783 0.09615533 15.83984375 2.36328125 C16.06689453 4.51806641 16.06689453 4.51806641 16.03515625 7.15234375 C16.03016113 8.00006348 16.02516602 8.8477832 16.02001953 9.72119141 C15.99270752 11.33840088 15.99270752 11.33840088 15.96484375 12.98828125 C15.92359375 16.41203125 15.88234375 19.83578125 15.83984375 23.36328125 C8.90984375 23.36328125 1.97984375 23.36328125 -5.16015625 23.36328125 C-7.30454234 19.07450908 -7.49357604 15.94915915 -7.47265625 11.30078125 C-7.48876953 10.58083984 -7.50488281 9.86089844 -7.52148438 9.11914062 C-7.52636943 3.85793811 -7.52636943 3.85793811 -5.89746094 1.65771484 C-3.76291188 0.06730182 -2.64046175 -0.0108468 0 0 Z " fill="#DFF572" transform="translate(257.16015625,254.63671875)"/>
<path d="M0 0 C0.74507812 0.00451172 1.49015625 0.00902344 2.2578125 0.01367188 C4.0885764 0.02540754 5.91929873 0.0433415 7.75 0.0625 C7.75 0.7225 7.75 1.3825 7.75 2.0625 C8.74 2.0625 9.73 2.0625 10.75 2.0625 C10.75 8.9925 10.75 15.9225 10.75 23.0625 C7.32625 23.124375 3.9025 23.18625 0.375 23.25 C-0.70313965 23.27731201 -1.7812793 23.30462402 -2.89208984 23.33276367 C-4.16366943 23.34400269 -4.16366943 23.34400269 -5.4609375 23.35546875 C-6.33024902 23.3711792 -7.19956055 23.38688965 -8.09521484 23.40307617 C-8.80629395 23.29068604 -9.51737305 23.1782959 -10.25 23.0625 C-12.35209857 19.90935215 -12.4934761 19.20146919 -12.4453125 15.61328125 C-12.43886719 14.76572266 -12.43242187 13.91816406 -12.42578125 13.04492188 C-12.40902344 12.16384766 -12.39226562 11.28277344 -12.375 10.375 C-12.36597656 9.48232422 -12.35695312 8.58964844 -12.34765625 7.66992188 C-12.32409748 5.46717686 -12.29120329 3.26497412 -12.25 1.0625 C-8.15996141 -0.08732602 -4.21822949 -0.04844256 0 0 Z " fill="#DBF16F" transform="translate(141.25,195.9375)"/>
<path d="M0 0 C0.86931152 0.01047363 1.73862305 0.02094727 2.63427734 0.03173828 C3.57529297 0.03818359 4.51630859 0.04462891 5.48583984 0.05126953 C6.47068359 0.06802734 7.45552734 0.08478516 8.47021484 0.10205078 C9.46279297 0.11107422 10.45537109 0.12009766 11.47802734 0.12939453 C13.93399618 0.15300962 16.38948653 0.18594279 18.84521484 0.22705078 C19.78658739 3.05116843 19.96246867 4.7562311 19.94287109 7.67626953 C19.94037354 8.44028076 19.93787598 9.20429199 19.93530273 9.99145508 C19.92619873 10.95607666 19.91709473 11.92069824 19.90771484 12.91455078 C19.88708984 15.98767578 19.86646484 19.06080078 19.84521484 22.22705078 C12.25521484 22.22705078 4.66521484 22.22705078 -3.15478516 22.22705078 C-3.36103516 18.96830078 -3.56728516 15.70955078 -3.77978516 12.35205078 C-3.8502002 11.32611816 -3.92061523 10.30018555 -3.99316406 9.24316406 C-4.03876465 8.4360498 -4.08436523 7.62893555 -4.13134766 6.79736328 C-4.18371582 5.96994629 -4.23608398 5.1425293 -4.29003906 4.29003906 C-4.08995731 1.23825056 -3.00002108 0.31611371 0 0 Z " fill="#E4FB74" transform="translate(163.15478515625,283.77294921875)"/>
<path d="M0 0 C0.78761719 -0.00257813 1.57523438 -0.00515625 2.38671875 -0.0078125 C3.62228516 0.00378906 3.62228516 0.00378906 4.8828125 0.015625 C5.69878906 0.00789063 6.51476562 0.00015625 7.35546875 -0.0078125 C8.54076172 -0.00394531 8.54076172 -0.00394531 9.75 0 C10.4704248 0.00225586 11.19084961 0.00451172 11.93310547 0.00683594 C14.0078125 0.265625 14.0078125 0.265625 18.0078125 2.265625 C18.0078125 8.865625 18.0078125 15.465625 18.0078125 22.265625 C14.5492737 22.31938467 11.09156342 22.35918181 7.6328125 22.390625 C6.64796875 22.40738281 5.663125 22.42414063 4.6484375 22.44140625 C3.70742187 22.44785156 2.76640625 22.45429688 1.796875 22.4609375 C0.49290771 22.47664795 0.49290771 22.47664795 -0.83740234 22.49267578 C-2.9921875 22.265625 -2.9921875 22.265625 -4.9921875 20.265625 C-5.30018108 17.75809236 -5.50356184 15.34446002 -5.6171875 12.828125 C-5.65585938 12.14685547 -5.69453125 11.46558594 -5.734375 10.76367188 C-5.88993798 7.9274254 -5.9921875 5.10642262 -5.9921875 2.265625 C-3.63988398 -0.08667852 -3.18515456 0.01000497 0 0 Z " fill="#E4FB74" transform="translate(164.9921875,342.734375)"/>
<path d="M0 0 C3.29164829 -0.02895225 6.58326399 -0.0467823 9.875 -0.0625 C10.81214844 -0.07087891 11.74929688 -0.07925781 12.71484375 -0.08789062 C14.05869141 -0.09272461 14.05869141 -0.09272461 15.4296875 -0.09765625 C16.67081299 -0.10551147 16.67081299 -0.10551147 17.93701172 -0.11352539 C20 0 20 0 22 1 C22 7.93 22 14.86 22 22 C18.57625 22.04125 15.1525 22.0825 11.625 22.125 C10.54686035 22.14320801 9.4687207 22.16141602 8.35791016 22.18017578 C7.51019043 22.1851709 6.6624707 22.19016602 5.7890625 22.1953125 C4.48509521 22.21102295 4.48509521 22.21102295 3.15478516 22.22705078 C1 22 1 22 -1 20 C-1.24291992 18.15234375 -1.24291992 18.15234375 -1.23046875 15.9375 C-1.22853516 15.14085937 -1.22660156 14.34421875 -1.22460938 13.5234375 C-1.21236328 12.69070313 -1.20011719 11.85796875 -1.1875 11 C-1.18685547 10.16726563 -1.18621094 9.33453125 -1.18554688 8.4765625 C-1.14043257 2.28086515 -1.14043257 2.28086515 0 0 Z " fill="#E4FB74" transform="translate(251,284)"/>
<path d="M0 0 C3.0833134 -0.02911321 6.16659125 -0.04683682 9.25 -0.0625 C10.12269531 -0.07087891 10.99539062 -0.07925781 11.89453125 -0.08789062 C12.73886719 -0.09111328 13.58320313 -0.09433594 14.453125 -0.09765625 C15.22817383 -0.10289307 16.00322266 -0.10812988 16.80175781 -0.11352539 C19 0 19 0 23 1 C23 7.93 23 14.86 23 22 C15.74 22 8.48 22 1 22 C0.05862745 19.17588235 -0.11725382 17.47081968 -0.09765625 14.55078125 C-0.09443359 13.70322266 -0.09121094 12.85566406 -0.08789062 11.98242188 C-0.07951172 11.10134766 -0.07113281 10.22027344 -0.0625 9.3125 C-0.05798828 8.41982422 -0.05347656 7.52714844 -0.04882812 6.60742188 C-0.03704983 4.40488013 -0.02060164 2.20247401 0 0 Z " fill="#E2F973" transform="translate(129,284)"/>
<path d="M0 0 C0.8765625 -0.01224609 1.753125 -0.02449219 2.65625 -0.03710938 C3.49929687 -0.03904297 4.34234375 -0.04097656 5.2109375 -0.04296875 C5.9848584 -0.04707764 6.7587793 -0.05118652 7.55615234 -0.05541992 C9.625 0.1875 9.625 0.1875 12.625 2.1875 C12.96557617 4.25048828 12.96557617 4.25048828 12.91796875 6.7578125 C12.90672974 7.96848389 12.90672974 7.96848389 12.89526367 9.20361328 C12.86795166 10.2295459 12.84063965 11.25547852 12.8125 12.3125 C12.750625 15.57125 12.68875 18.83 12.625 22.1875 C5.365 22.1875 -1.895 22.1875 -9.375 22.1875 C-10.28800909 19.44847274 -10.50346608 17.8130173 -10.5078125 14.9921875 C-10.50910156 14.19425781 -10.51039063 13.39632813 -10.51171875 12.57421875 C-10.50785156 11.74535156 -10.50398437 10.91648437 -10.5 10.0625 C-10.50386719 9.22589844 -10.50773438 8.38929688 -10.51171875 7.52734375 C-10.49720142 -1.42985119 -7.95525554 0.00579829 0 0 Z " fill="#E2F973" transform="translate(139.375,342.8125)"/>
<path d="M0 0 C2.72943537 -0.05416741 5.45778564 -0.09375225 8.1875 -0.125 C9.34088867 -0.15013672 9.34088867 -0.15013672 10.51757812 -0.17578125 C11.26845703 -0.18222656 12.01933594 -0.18867188 12.79296875 -0.1953125 C13.4789917 -0.20578613 14.16501465 -0.21625977 14.87182617 -0.22705078 C17 0 17 0 22 2 C22 8.6 22 15.2 22 22 C18.5414612 22.05375967 15.08375092 22.09355681 11.625 22.125 C10.64015625 22.14175781 9.6553125 22.15851563 8.640625 22.17578125 C7.69960938 22.18222656 6.75859375 22.18867188 5.7890625 22.1953125 C4.48509521 22.21102295 4.48509521 22.21102295 3.15478516 22.22705078 C1 22 1 22 -1 20 C-1.17245986 17.15002778 -1.23216611 14.40937679 -1.1875 11.5625 C-1.18685547 10.78583984 -1.18621094 10.00917969 -1.18554688 9.20898438 C-1.15987563 5.89739425 -1.05352418 3.16057255 0 0 Z " fill="#DBF16F" transform="translate(282,284)"/>
<path d="M0 0 C0.33 0 0.66 0 1 0 C1 26.4 1 52.8 1 80 C0.67 80 0.34 80 0 80 C0 53.6 0 27.2 0 0 Z " fill="#000100" transform="translate(767,268)"/>
<path d="M0 0 C0.33 0 0.66 0 1 0 C1 14.85 1 29.7 1 45 C0.67 45 0.34 45 0 45 C0 30.15 0 15.3 0 0 Z " fill="#E5FC75" transform="translate(645,302)"/>
<path d="M0 0 C0.33 0 0.66 0 1 0 C1 11.88 1 23.76 1 36 C0.67 36 0.34 36 0 36 C0 24.12 0 12.24 0 0 Z " fill="#E5FC75" transform="translate(645,221)"/>
<path d="M0 0 C9.57 0 19.14 0 29 0 C29 0.33 29 0.66 29 1 C19.43 1 9.86 1 0 1 C0 0.67 0 0.34 0 0 Z " fill="#000100" transform="translate(979,239)"/>
<path d="M0 0 C0.66 0 1.32 0 2 0 C3.5859375 1.64453125 3.5859375 1.64453125 5.375 3.8125 C7.23566282 6.06250857 8.86872703 7.90350285 11.2265625 9.63671875 C11.81179688 10.08660156 12.39703125 10.53648437 13 11 C13 11.66 13 12.32 13 13 C9.36938333 11.46781315 7.0136227 9.2816856 4.25 6.5 C3.45078125 5.7059375 2.6515625 4.911875 1.828125 4.09375 C0 2 0 2 0 0 Z " fill="#B1BC53" transform="translate(519,326)"/>
<path d="M0 0 C8.25 0 16.5 0 25 0 C25 0.33 25 0.66 25 1 C16.75 1 8.5 1 0 1 C0 0.67 0 0.34 0 0 Z " fill="#E5FC75" transform="translate(1027,380)"/>
<path d="M0 0 C6.27 0 12.54 0 19 0 C19 0.33 19 0.66 19 1 C12.73 1 6.46 1 0 1 C0 0.67 0 0.34 0 0 Z " fill="#E5FC75" transform="translate(774,309)"/>
<path d="M0 0 C6.27 0 12.54 0 19 0 C19 0.33 19 0.66 19 1 C12.73 1 6.46 1 0 1 C0 0.67 0 0.34 0 0 Z " fill="#000100" transform="translate(192,307)"/>
<path d="M0 0 C5.94 0 11.88 0 18 0 C18 0.33 18 0.66 18 1 C12.06 1 6.12 1 0 1 C0 0.67 0 0.34 0 0 Z " fill="#000100" transform="translate(162,366)"/>
<path d="M0 0 C5.94 0 11.88 0 18 0 C18 0.33 18 0.66 18 1 C12.06 1 6.12 1 0 1 C0 0.67 0 0.34 0 0 Z " fill="#000100" transform="translate(283,307)"/>
<path d="M0 0 C5.94 0 11.88 0 18 0 C18 0.33 18 0.66 18 1 C12.06 1 6.12 1 0 1 C0 0.67 0 0.34 0 0 Z " fill="#000100" transform="translate(223,307)"/>
<path d="M0 0 C5.94 0 11.88 0 18 0 C18 0.33 18 0.66 18 1 C12.06 1 6.12 1 0 1 C0 0.67 0 0.34 0 0 Z " fill="#000100" transform="translate(162,307)"/>
<path d="M0 0 C5.94 0 11.88 0 18 0 C18 0.33 18 0.66 18 1 C12.06 1 6.12 1 0 1 C0 0.67 0 0.34 0 0 Z " fill="#000100" transform="translate(132,307)"/>
<path d="M0 0 C5.94 0 11.88 0 18 0 C18 0.33 18 0.66 18 1 C12.06 1 6.12 1 0 1 C0 0.67 0 0.34 0 0 Z " fill="#000100" transform="translate(864,259)"/>
<path d="M0 0 C5.61 0 11.22 0 17 0 C17 0.33 17 0.66 17 1 C11.39 1 5.78 1 0 1 C0 0.67 0 0.34 0 0 Z " fill="#000100" transform="translate(224,366)"/>
<path d="M0 0 C5.61 0 11.22 0 17 0 C17 0.33 17 0.66 17 1 C11.39 1 5.78 1 0 1 C0 0.67 0 0.34 0 0 Z " fill="#000100" transform="translate(193,366)"/>
<path d="M0 0 C5.61 0 11.22 0 17 0 C17 0.33 17 0.66 17 1 C11.39 1 5.78 1 0 1 C0 0.67 0 0.34 0 0 Z " fill="#000100" transform="translate(132,366)"/>
<path d="M0 0 C5.61 0 11.22 0 17 0 C17 0.33 17 0.66 17 1 C11.39 1 5.78 1 0 1 C0 0.67 0 0.34 0 0 Z " fill="#000100" transform="translate(254,307)"/>
<path d="M0 0 C5.28 0 10.56 0 16 0 C16 0.33 16 0.66 16 1 C10.72 1 5.44 1 0 1 C0 0.67 0 0.34 0 0 Z " fill="#E5FC75" transform="translate(162,312)"/>
<path d="M0 0 C5.28 0 10.56 0 16 0 C16 0.33 16 0.66 16 1 C10.72 1 5.44 1 0 1 C0 0.67 0 0.34 0 0 Z " fill="#E5FC75" transform="translate(131,312)"/>
<path d="M0 0 C4.95 0 9.9 0 15 0 C15 0.33 15 0.66 15 1 C10.05 1 5.1 1 0 1 C0 0.67 0 0.34 0 0 Z " fill="#E5FC75" transform="translate(252,312)"/>
<path d="M0 0 C0.33 0 0.66 0 1 0 C1 3.3 1 6.6 1 10 C0.67 10 0.34 10 0 10 C0 6.7 0 3.4 0 0 Z " fill="#E5FC75" transform="translate(645,288)"/>
<path d="M0 0 C0.33 0 0.66 0 1 0 C1 3.3 1 6.6 1 10 C0.67 10 0.34 10 0 10 C0 6.7 0 3.4 0 0 Z " fill="#E5FC75" transform="translate(645,261)"/>
<path d="M0 0 C0.33 0 0.66 0 1 0 C1 2.31 1 4.62 1 7 C0.67 7 0.34 7 0 7 C0 4.69 0 2.38 0 0 Z " fill="#000100" transform="translate(671,268)"/>
<path d="M0 0 C1.65 0 3.3 0 5 0 C5 0.33 5 0.66 5 1 C3.35 1 1.7 1 0 1 C0 0.67 0 0.34 0 0 Z " fill="#000100" transform="translate(582,352)"/>
<path d="M0 0 C1.65 0 3.3 0 5 0 C5 0.33 5 0.66 5 1 C3.35 1 1.7 1 0 1 C0 0.67 0 0.34 0 0 Z " fill="#000100" transform="translate(555,352)"/>
<path d="M0 0 C0.33 0 0.66 0 1 0 C1 1.65 1 3.3 1 5 C0.67 5 0.34 5 0 5 C0 3.35 0 1.7 0 0 Z " fill="#000100" transform="translate(530,265)"/>
<path d="M0 0 C1.65 0 3.3 0 5 0 C5 0.33 5 0.66 5 1 C3.35 1 1.7 1 0 1 C0 0.67 0 0.34 0 0 Z " fill="#000100" transform="translate(716,239)"/>
<path d="M0 0 C4 1 4 1 4 1 Z " fill="#000100" transform="translate(813,352)"/>
<path d="M0 0 C4 1 4 1 4 1 Z " fill="#000100" transform="translate(432,352)"/>
<path d="M0 0 C4 1 4 1 4 1 Z " fill="#000100" transform="translate(404,352)"/>
<path d="M0 0 C1 4 1 4 1 4 Z " fill="#000100" transform="translate(530,302)"/>
<path d="M0 0 C4 1 4 1 4 1 Z " fill="#000100" transform="translate(807,290)"/>
<path d="M0 0 C4 1 4 1 4 1 Z " fill="#000100" transform="translate(696,239)"/>
<path d="" fill="#E5FC75" transform="translate(0,0)"/>
<path d="M0 0 C3 1 3 1 3 1 Z " fill="#000100" transform="translate(847,352)"/>
<path d="M0 0 C3 1 3 1 3 1 Z " fill="#000100" transform="translate(858,349)"/>
<path d="M0 0 C3 1 3 1 3 1 Z " fill="#000100" transform="translate(802,349)"/>
<path d="" fill="#000100" transform="translate(0,0)"/>
<path d="" fill="#E5FC75" transform="translate(0,0)"/>
<path d="" fill="#000100" transform="translate(0,0)"/>
<path d="M0 0 C3 1 3 1 3 1 Z " fill="#000100" transform="translate(825,293)"/>
<path d="" fill="#000100" transform="translate(0,0)"/>
<path d="" fill="#C3D460" transform="translate(0,0)"/>
<path d="M0 0 C3 1 3 1 3 1 Z " fill="#000100" transform="translate(435,239)"/>
<path d="" fill="#000100" transform="translate(0,0)"/>
<path d="" fill="#000100" transform="translate(0,0)"/>
<path d="M0 0 C2 1 2 1 2 1 Z " fill="#000100" transform="translate(975,349)"/>
<path d="M0 0 C2 1 2 1 2 1 Z " fill="#000100" transform="translate(596,349)"/>
<path d="M0 0 C2 1 2 1 2 1 Z " fill="#000100" transform="translate(544,349)"/>
<path d="M0 0 C2 1 2 1 2 1 Z " fill="#000100" transform="translate(444,349)"/>
<path d="M0 0 C2 1 2 1 2 1 Z " fill="#000100" transform="translate(395,349)"/>
<path d="M0 0 C2 1 2 1 2 1 Z " fill="#40431B" transform="translate(565,332)"/>
<path d="" fill="#000100" transform="translate(0,0)"/>
<path d="" fill="#000100" transform="translate(0,0)"/>
<path d="" fill="#000100" transform="translate(0,0)"/>
<path d="" fill="#000100" transform="translate(0,0)"/>
<path d="M0 0 C2 1 2 1 2 1 Z " fill="#000100" transform="translate(798,287)"/>
<path d="" fill="#E5FC75" transform="translate(0,0)"/>
<path d="" fill="#E5FC75" transform="translate(0,0)"/>
<path d="" fill="#E5FC75" transform="translate(0,0)"/>
<path d="" fill="#000100" transform="translate(0,0)"/>
<path d="" fill="#000100" transform="translate(0,0)"/>
<path d="M0 0 C2 1 2 1 2 1 Z " fill="#000100" transform="translate(587,239)"/>
<path d="" fill="#000100" transform="translate(0,0)"/>
<path d="" fill="#000100" transform="translate(0,0)"/>
<path d="" fill="#000100" transform="translate(0,0)"/>
<path d="" fill="#000100" transform="translate(0,0)"/>
<path d="" fill="#000100" transform="translate(0,0)"/>
<path d="" fill="#000100" transform="translate(0,0)"/>
<path d="" fill="#000100" transform="translate(0,0)"/>
<path d="" fill="#E5FC75" transform="translate(0,0)"/>
<path d="" fill="#000100" transform="translate(0,0)"/>
<path d="" fill="#000100" transform="translate(0,0)"/>
<path d="" fill="#BCC95A" transform="translate(0,0)"/>
<path d="" fill="#000100" transform="translate(0,0)"/>
<path d="" fill="#E5FC75" transform="translate(0,0)"/>
<path d="" fill="#000100" transform="translate(0,0)"/>
<path d="" fill="#E5FC75" transform="translate(0,0)"/>
<path d="" fill="#000100" transform="translate(0,0)"/>
<path d="" fill="#000100" transform="translate(0,0)"/>
<path d="" fill="#E5FC75" transform="translate(0,0)"/>
<path d="" fill="#000100" transform="translate(0,0)"/>
<path d="" fill="#BCC95A" transform="translate(0,0)"/>
<path d="" fill="#E5FC75" transform="translate(0,0)"/>
<path d="" fill="#000100" transform="translate(0,0)"/>
<path d="" fill="#000100" transform="translate(0,0)"/>
<path d="" fill="#000100" transform="translate(0,0)"/>
<path d="" fill="#E5FC75" transform="translate(0,0)"/>
<path d="" fill="#E5FC75" transform="translate(0,0)"/>
<path d="" fill="#000100" transform="translate(0,0)"/>
<path d="" fill="#000100" transform="translate(0,0)"/>
<path d="" fill="#000100" transform="translate(0,0)"/>
<path d="" fill="#000100" transform="translate(0,0)"/>
<path d="" fill="#000100" transform="translate(0,0)"/>
<path d="" fill="#000100" transform="translate(0,0)"/>
<path d="" fill="#000100" transform="translate(0,0)"/>
<path d="" fill="#000100" transform="translate(0,0)"/>
<path d="" fill="#000100" transform="translate(0,0)"/>
<path d="" fill="#000100" transform="translate(0,0)"/>
<path d="" fill="#000100" transform="translate(0,0)"/>
<path d="" fill="#000100" transform="translate(0,0)"/>
<path d="" fill="#393C17" transform="translate(0,0)"/>
<path d="" fill="#000100" transform="translate(0,0)"/>
<path d="" fill="#000100" transform="translate(0,0)"/>
<path d="" fill="#E5FC75" transform="translate(0,0)"/>
<path d="" fill="#000100" transform="translate(0,0)"/>
<path d="" fill="#000100" transform="translate(0,0)"/>
<path d="" fill="#000100" transform="translate(0,0)"/>
<path d="" fill="#000100" transform="translate(0,0)"/>
<path d="" fill="#000100" transform="translate(0,0)"/>
<path d="" fill="#000100" transform="translate(0,0)"/>
<path d="" fill="#000100" transform="translate(0,0)"/>
<path d="" fill="#000100" transform="translate(0,0)"/>
<path d="" fill="#000100" transform="translate(0,0)"/>
<path d="" fill="#E5FC75" transform="translate(0,0)"/>
<path d="" fill="#818536" transform="translate(0,0)"/>
<path d="" fill="#BCC95A" transform="translate(0,0)"/>
<path d="" fill="#E5FC75" transform="translate(0,0)"/>
<path d="" fill="#000100" transform="translate(0,0)"/>
<path d="" fill="#E5FC75" transform="translate(0,0)"/>
<path d="" fill="#E5FC75" transform="translate(0,0)"/>
<path d="" fill="#000100" transform="translate(0,0)"/>
<path d="" fill="#000100" transform="translate(0,0)"/>
<path d="" fill="#393C17" transform="translate(0,0)"/>
<path d="" fill="#393C17" transform="translate(0,0)"/>
<path d="" fill="#E5FC75" transform="translate(0,0)"/>
<path d="" fill="#393C17" transform="translate(0,0)"/>
<path d="" fill="#393C17" transform="translate(0,0)"/>
<path d="" fill="#E5FC75" transform="translate(0,0)"/>
<path d="" fill="#E5FC75" transform="translate(0,0)"/>
<path d="" fill="#E5FC75" transform="translate(0,0)"/>
</svg>
